{"glyphs":{"0":{"ha":729,"x_min":4,"x_max":793,"o":"m 414 1183 l 490 1180 l 532 1167 l 585 1135 l 620 1101 l 646 1065 l 656 1051 l 665 1031 l 670 1021 l 676 1008 l 680 1003 q 618 334 793 678 q 410 119 549 203 q 383 109 399 114 q 361 102 370 103 l 330 94 l 246 96 q 222 104 236 98 l 207 111 q 147 147 178 121 l 119 176 l 103 197 l 98 203 l 84 227 l 81 231 q 19 568 4 381 l 20 629 q 26 663 25 642 l 28 667 l 36 713 l 41 726 l 43 738 l 48 757 l 50 764 q 59 796 56 781 l 75 838 l 77 845 q 90 877 83 856 l 94 882 l 107 912 q 116 927 110 918 l 118 932 l 127 946 q 135 961 130 951 l 138 966 l 150 986 q 163 1005 157 994 l 197 1047 l 205 1057 q 222 1076 215 1066 l 279 1124 q 296 1135 286 1130 l 315 1145 l 319 1149 l 351 1166 l 366 1171 l 382 1176 l 394 1177 l 414 1183 m 454 858 q 387 897 431 895 l 359 885 q 227 559 245 767 l 224 472 q 225 439 225 458 l 237 366 q 242 348 241 359 q 254 319 248 338 q 288 275 267 296 q 320 266 302 267 q 370 290 347 270 q 481 783 525 483 q 469 823 478 800 q 462 841 467 830 l 454 858 z "},"1":{"ha":309,"x_min":34,"x_max":249,"o":"m 34 1213 q 77 1207 52 1213 l 86 1205 l 92 1205 q 113 1200 104 1203 l 119 1200 q 135 1197 130 1198 q 151 1194 141 1196 l 158 1192 l 168 1190 l 176 1189 l 186 1187 l 197 1185 q 220 1181 210 1183 l 249 1176 l 249 1143 l 248 1129 l 246 1103 q 245 1096 245 1102 q 243 1085 245 1090 l 243 1072 l 242 1056 l 240 1036 l 239 1031 l 239 1021 l 237 1008 q 236 985 236 998 l 235 965 l 233 962 l 233 950 l 232 945 l 232 932 l 231 928 l 231 917 l 229 903 q 224 852 227 875 l 224 842 q 223 834 223 840 l 223 825 l 222 814 l 220 801 l 219 786 l 219 775 l 217 764 l 216 753 q 213 718 216 738 q 212 684 212 697 l 210 675 q 205 625 209 648 l 205 620 l 204 600 l 203 587 l 201 574 l 201 566 l 200 557 l 199 528 l 197 518 q 194 489 197 505 l 193 469 q 190 435 193 456 l 190 422 q 186 376 186 395 l 182 345 q 178 298 182 328 l 177 269 l 176 249 q 172 216 172 236 l 171 212 l 171 199 q 170 180 170 191 q 168 165 168 175 l 167 149 l 165 142 l 165 127 q 163 92 163 106 l 161 83 l 77 83 l 76 131 l 75 138 l 75 153 q 73 171 76 160 l 72 232 l 70 243 l 70 277 l 68 288 l 64 420 q 63 435 63 426 l 60 531 l 58 537 l 54 666 l 53 681 l 52 745 l 50 749 l 50 781 l 49 795 l 47 857 q 45 863 45 858 l 44 928 l 43 932 l 43 963 q 41 996 40 977 l 40 1010 l 40 1036 q 39 1050 39 1041 l 37 1096 l 35 1126 q 34 1148 37 1137 l 34 1213 z "},"2":{"ha":766,"x_min":-7,"x_max":778,"o":"m 258 1223 l 336 1223 q 603 867 576 1159 q 456 488 626 645 q 433 471 446 482 l 421 465 q 407 457 416 463 l 401 456 q 372 443 389 448 l 366 439 l 357 408 l 355 399 l 351 380 l 349 369 l 340 340 l 338 334 l 336 325 q 364 326 349 323 l 375 326 l 387 328 l 393 328 q 405 330 395 330 l 412 332 q 451 335 428 332 l 458 335 l 474 337 l 494 339 l 497 340 l 508 340 l 513 342 l 526 342 l 529 344 l 539 344 q 582 349 566 346 l 587 349 l 631 355 l 644 355 q 663 358 656 357 l 677 358 l 693 360 q 707 362 699 362 l 720 363 l 734 366 l 773 369 q 774 337 774 349 l 774 293 q 777 267 778 281 l 777 236 l 778 227 l 778 121 l 675 121 l 669 123 l 616 123 q 602 125 610 125 l 557 125 l 538 127 l 500 127 l 495 128 l 439 128 l 433 130 l 380 130 l 375 132 l 322 132 l 319 134 l 269 134 l 255 136 l 205 136 l 202 138 l 174 138 l 175 150 l 177 164 q 179 182 179 174 q 180 194 180 183 l 182 205 l 184 217 q 188 240 188 226 l 189 245 l 189 254 l 191 261 l 195 286 l 197 298 l 198 305 l 202 334 l 203 348 q 207 363 205 358 l 207 374 q 216 413 214 397 l 220 429 l 221 441 q 225 459 223 454 q 227 471 227 465 l 229 480 q 232 500 232 492 l 235 514 l 235 519 l 239 532 q 241 549 241 544 q 273 544 253 549 l 299 544 q 435 791 448 597 q 310 981 425 935 q 147 862 191 995 l 94 864 q 69 865 83 865 l 46 867 q 28 869 39 867 l 13 869 l -7 871 q 195 1203 4 1090 l 234 1217 l 253 1221 l 258 1223 z "},"3":{"ha":800,"x_min":-4,"x_max":855,"o":"m 115 1160 q 146 1173 128 1164 q 553 1160 343 1240 l 589 1141 q 606 1130 594 1137 l 635 1108 l 638 1103 q 675 764 784 960 q 820 580 782 705 q 791 341 855 464 q 265 96 620 68 l 237 203 q 580 349 426 216 l 624 410 l 635 442 l 640 467 q 633 507 639 484 l 629 521 l 612 544 q 593 564 606 554 l 590 568 q 141 561 399 677 l 101 709 l 243 751 l 263 760 l 278 766 l 286 768 l 293 772 l 308 778 q 338 791 319 785 l 348 798 l 354 800 q 361 804 355 802 l 457 869 q 472 882 462 876 l 481 893 l 492 907 l 497 913 l 506 926 q 513 983 517 951 q 486 1015 505 1001 l 484 1019 q 423 1042 460 1034 l 418 1044 l 371 1051 l 363 1051 l 331 1054 l 319 1053 l 298 1053 l 275 1053 l 193 1044 l 187 1043 q 154 1038 173 1043 l 142 1037 l 119 1030 l 104 1029 l 22 1006 l -4 1101 l 37 1126 l 50 1133 q 62 1139 59 1138 l 77 1147 q 109 1159 90 1150 l 115 1160 l 115 1160 z "},"4":{"ha":670,"x_min":33,"x_max":680,"o":"m 544 1247 l 557 1247 l 557 1147 l 559 1137 l 561 885 q 599 892 577 885 l 604 892 l 625 898 l 630 898 l 641 902 l 670 907 q 672 861 674 889 l 674 854 l 674 818 q 675 785 677 805 q 677 772 675 776 l 680 642 l 595 640 q 570 639 585 639 l 562 637 l 566 252 l 568 248 l 568 144 l 259 144 l 267 189 q 272 216 269 205 l 272 224 q 275 248 275 233 q 281 279 279 260 l 283 286 l 294 347 l 296 357 l 301 394 l 303 407 l 311 447 l 316 474 q 317 492 317 485 l 319 505 l 321 511 l 325 531 l 327 542 l 328 558 l 330 569 l 332 573 l 336 598 l 338 611 l 340 615 l 341 629 q 296 629 323 631 l 272 629 q 246 628 261 628 l 65 623 l 58 621 l 33 621 l 33 701 q 35 719 35 708 l 35 741 q 36 765 35 750 l 36 790 l 38 800 q 40 856 36 821 l 40 889 l 41 892 l 41 933 q 43 947 43 939 l 43 981 l 45 984 l 45 1017 q 47 1053 47 1031 l 47 1066 l 49 1081 l 49 1118 l 51 1123 q 53 1192 51 1150 l 95 1194 l 107 1196 q 133 1198 119 1194 l 197 1200 q 230 1202 210 1203 l 233 1203 l 259 1203 l 257 1148 l 256 1134 l 252 1052 l 250 1042 l 248 1011 q 246 984 250 999 q 245 953 248 969 q 243 926 245 937 l 243 897 l 241 889 l 241 874 l 239 863 l 239 836 l 237 832 l 237 818 l 274 823 l 286 827 l 301 829 q 332 836 312 832 q 369 844 354 842 l 378 847 l 385 887 l 387 900 q 390 916 389 909 q 393 929 391 922 l 394 944 l 396 951 l 401 982 l 404 999 l 409 1023 q 414 1053 411 1042 l 414 1059 l 420 1090 l 422 1106 q 425 1124 425 1114 q 431 1158 429 1137 l 433 1163 l 436 1189 l 442 1216 l 458 1220 q 495 1231 473 1227 l 511 1236 l 528 1242 l 544 1247 z "},"5":{"ha":719,"x_min":68,"x_max":753,"o":"m 140 1250 q 174 1246 154 1252 l 187 1245 q 198 1244 195 1244 l 216 1240 q 229 1238 224 1238 l 252 1236 l 260 1234 l 269 1232 l 285 1230 l 293 1229 l 302 1227 l 314 1225 l 319 1224 l 327 1224 q 365 1217 349 1219 l 374 1216 l 410 1211 q 439 1206 422 1208 q 459 1202 451 1204 l 471 1201 l 480 1200 l 490 1198 l 510 1194 l 522 1193 l 532 1192 l 544 1190 q 557 1188 549 1188 l 568 1185 l 580 1183 l 593 1181 q 609 1180 603 1180 l 621 1177 l 631 1177 q 637 1175 632 1175 l 696 1165 l 702 1165 q 708 1164 704 1164 q 715 1162 712 1164 l 728 1160 l 740 1159 l 753 1157 l 753 1128 l 751 1116 q 748 1099 749 1105 q 745 1069 748 1087 l 743 1048 l 741 1040 l 738 1017 l 738 1008 l 736 1002 l 735 984 l 733 976 l 730 948 l 728 939 l 727 927 l 725 914 l 725 904 l 724 901 l 722 883 l 720 873 q 715 836 719 850 q 713 818 713 825 l 673 833 l 669 834 l 557 875 l 546 880 l 494 899 l 487 903 l 480 904 l 445 918 q 417 928 433 920 l 382 940 l 373 945 l 321 964 l 314 966 l 281 979 l 277 939 l 277 927 l 275 922 l 275 911 l 273 903 l 272 875 l 270 854 l 269 849 l 269 841 l 267 825 l 265 806 l 264 789 l 262 769 q 619 463 495 704 q 627 443 621 452 l 629 438 q 637 410 633 427 l 640 404 q 642 392 642 395 q 616 195 676 291 q 448 85 560 109 q 156 154 296 53 l 159 172 q 168 192 164 178 l 172 210 l 176 216 l 176 221 l 179 227 l 180 234 l 185 249 l 187 255 l 195 285 q 200 298 198 290 l 206 314 q 463 355 401 97 q 393 531 471 454 q 151 611 294 616 l 121 656 l 119 660 l 91 701 q 83 713 85 709 q 79 720 81 717 q 74 726 77 723 q 68 734 71 730 q 75 754 68 743 l 76 767 l 76 772 l 79 790 l 79 795 l 84 831 l 85 849 l 87 852 q 91 875 87 862 l 91 882 l 96 922 q 97 928 97 924 q 99 935 97 932 l 99 945 l 100 955 l 102 964 l 104 976 l 105 989 l 111 1027 l 111 1031 q 113 1053 113 1040 l 115 1059 l 115 1069 q 117 1075 117 1071 q 119 1084 117 1079 l 121 1116 l 123 1126 l 125 1141 l 127 1145 l 127 1156 l 128 1164 l 133 1204 l 135 1216 l 136 1225 l 138 1237 l 140 1250 z "},"6":{"ha":719,"x_min":27,"x_max":820,"o":"m 478 1236 q 492 1233 485 1236 q 516 1197 500 1219 l 541 1161 l 545 1155 l 596 1080 l 603 1072 l 606 1063 q 570 1048 591 1060 l 566 1047 q 552 1040 560 1045 q 542 1037 545 1039 l 524 1027 l 513 1022 q 506 1019 511 1021 l 372 936 l 369 932 l 359 926 l 269 844 l 231 798 l 220 781 q 207 761 214 774 l 194 738 l 192 733 l 186 722 l 181 711 l 164 666 l 163 659 l 159 648 l 158 638 l 156 627 q 153 615 155 618 q 600 658 353 754 q 799 324 820 559 q 524 66 745 123 q 123 159 307 12 q 39 287 68 210 l 37 296 l 32 313 l 31 321 l 28 324 l 27 336 l 27 424 l 28 431 l 28 445 l 31 452 q 32 478 31 463 q 34 491 34 483 l 35 496 q 37 517 35 504 l 39 524 l 42 547 l 43 558 l 45 564 q 52 604 50 589 l 54 607 q 56 622 54 614 l 62 650 q 64 655 63 651 q 66 669 64 659 q 73 695 71 684 l 78 709 l 78 713 l 84 731 l 84 736 l 91 754 l 96 772 q 100 785 99 777 q 112 814 104 797 l 115 826 l 119 831 q 125 849 120 839 l 148 898 l 151 908 l 176 952 q 191 977 181 964 l 195 986 l 199 989 l 205 1001 l 214 1014 l 222 1025 l 230 1037 l 264 1078 l 266 1081 l 277 1093 l 281 1097 l 309 1125 q 328 1141 315 1132 l 336 1149 l 367 1173 l 370 1176 l 428 1212 l 433 1213 q 449 1221 439 1219 l 454 1225 l 473 1233 l 478 1236 m 653 365 q 521 517 697 522 q 239 311 331 491 q 233 285 238 300 q 239 226 231 249 q 480 199 311 123 q 653 365 589 248 z "},"7":{"ha":721,"x_min":22,"x_max":740,"o":"m 22 1208 l 89 1208 l 94 1206 l 127 1206 l 136 1204 l 168 1204 l 180 1202 l 204 1202 l 210 1200 l 278 1198 l 288 1196 l 321 1196 l 326 1194 l 395 1192 l 408 1190 l 439 1190 l 442 1188 l 474 1188 l 488 1186 l 516 1186 l 528 1184 l 583 1182 l 597 1180 l 631 1180 l 637 1178 l 667 1178 q 688 1176 675 1176 l 740 1174 q 726 1116 739 1146 l 702 1029 q 691 998 696 1011 l 689 987 l 675 943 q 668 921 673 933 l 656 875 l 651 863 l 598 684 q 591 663 597 675 l 567 578 q 559 556 565 568 q 551 526 558 544 l 528 450 l 526 442 l 516 408 l 514 400 l 495 338 l 493 330 l 490 317 q 486 306 486 309 l 476 271 l 471 256 l 465 237 l 456 205 l 453 197 l 432 127 q 425 103 430 117 l 413 59 l 409 51 l 406 35 q 345 59 378 39 l 302 77 l 285 87 l 276 91 q 255 99 264 97 l 250 103 l 161 143 l 152 149 q 108 173 129 153 l 133 248 q 136 255 134 250 q 138 263 138 260 l 152 302 l 157 319 l 162 332 l 164 342 q 176 378 171 355 l 208 468 l 212 482 l 217 496 l 229 534 l 233 541 l 250 596 l 255 610 l 260 629 q 267 648 266 636 l 273 663 l 308 767 l 311 775 l 320 805 l 326 819 q 342 869 330 839 q 348 889 347 877 l 351 895 l 378 977 l 381 983 l 360 987 l 350 987 l 347 989 l 336 989 q 329 991 334 991 l 304 996 q 276 1000 292 996 l 266 1002 q 239 1006 250 1002 l 229 1006 l 220 1008 q 187 1011 201 1011 l 182 1013 l 146 1017 l 134 1019 l 125 1021 l 115 1023 l 103 1025 l 89 1027 l 79 1027 l 75 1029 l 56 1031 l 41 1034 l 40 1056 l 38 1069 l 37 1084 l 35 1098 l 33 1109 l 29 1130 q 28 1144 29 1140 l 28 1152 q 24 1178 24 1162 l 22 1186 l 22 1208 z "},"8":{"ha":686,"x_min":16,"x_max":703,"o":"m 205 1052 q 399 1248 241 1204 l 458 1248 q 672 1027 631 1223 q 522 724 703 827 q 684 345 703 595 q 396 23 646 79 l 332 23 q 315 24 325 21 q 92 174 180 44 q 28 450 16 290 q 286 768 58 685 q 205 1052 173 880 m 415 958 q 355 1062 412 1039 q 335 1052 345 1061 l 332 1050 q 311 864 279 968 q 376 827 332 807 q 415 958 422 878 m 520 384 q 308 602 490 597 q 156 479 209 584 q 142 262 110 380 q 252 123 168 175 q 425 140 336 83 q 520 384 527 230 z "},"9":{"ha":781,"x_min":28,"x_max":742,"o":"m 45 960 q 410 1247 155 1200 l 465 1247 q 717 1122 620 1263 q 739 1062 730 1099 l 742 1050 l 742 958 l 732 916 l 722 888 l 720 883 l 705 844 l 703 838 l 700 815 l 695 791 q 690 762 692 779 l 688 753 l 688 746 l 686 736 q 684 729 684 734 q 680 705 681 720 l 678 694 q 675 678 675 684 l 671 669 l 670 660 l 665 629 q 661 605 663 619 l 659 594 q 651 553 654 577 q 648 535 650 545 q 647 528 647 534 l 642 508 l 642 500 l 639 490 l 639 484 l 633 456 q 627 424 631 442 l 625 414 l 617 369 l 615 361 l 614 354 l 610 336 l 608 323 l 606 307 l 603 298 l 603 290 q 595 255 600 270 l 593 246 q 587 213 592 226 l 586 201 l 573 129 q 566 89 568 113 l 562 78 l 523 81 l 513 83 l 506 85 l 495 87 l 477 91 q 457 94 465 94 l 448 96 l 445 98 q 425 102 435 98 l 416 104 l 378 111 l 371 111 q 365 114 370 113 q 355 115 360 115 q 346 117 351 116 q 337 119 342 118 q 328 120 332 120 q 335 165 329 138 q 337 173 337 168 l 354 248 l 354 254 l 357 262 l 376 351 l 380 372 l 382 385 l 398 453 q 404 484 399 466 l 406 490 l 409 510 q 410 517 410 511 l 421 563 l 423 576 l 426 585 q 429 601 426 592 l 432 619 l 434 625 q 111 663 263 564 q 80 694 98 674 l 73 705 l 54 733 l 44 753 l 41 764 l 39 768 q 32 797 35 781 l 28 808 l 28 894 q 43 949 32 916 l 45 960 m 501 916 q 351 1072 501 1072 q 171 881 193 1050 q 172 863 172 873 l 177 844 l 179 841 q 343 753 227 731 q 501 916 462 773 z "}," ":{"ha":264,"x_min":0,"x_max":0,"o":""},"!":{"ha":453,"x_min":53,"x_max":627,"o":"m 375 1236 l 386 1234 l 437 1205 l 441 1202 l 475 1183 l 480 1181 q 501 1169 488 1175 l 545 1145 q 552 1141 547 1143 l 610 1107 l 616 1105 l 627 1098 l 627 1086 q 620 1067 622 1079 l 614 1055 q 608 1040 610 1048 l 605 1034 l 509 794 l 507 787 l 473 702 q 465 687 471 696 l 462 673 l 456 661 l 446 636 l 441 623 l 418 568 q 411 551 416 561 l 378 470 l 377 463 l 361 427 q 356 412 358 421 l 352 406 l 347 389 l 341 376 l 307 293 l 303 280 l 300 274 l 277 218 l 275 210 l 250 152 q 228 159 241 153 l 213 165 l 192 170 q 177 176 186 174 l 165 182 l 158 184 l 147 187 q 153 216 147 201 l 153 221 l 160 255 q 170 291 164 276 l 170 298 q 179 340 175 315 l 186 374 l 190 387 l 198 425 l 199 436 l 207 470 q 211 487 211 479 q 216 511 215 496 l 218 523 l 220 528 l 224 549 q 230 572 228 559 l 241 627 q 247 651 245 636 l 249 656 l 252 677 q 258 699 256 687 l 260 711 l 273 766 l 273 774 q 275 781 275 775 q 281 808 279 792 q 283 821 283 817 q 290 844 284 825 l 290 851 l 298 885 l 300 895 l 307 922 q 313 947 307 934 l 315 960 l 317 964 l 317 971 l 318 979 l 320 988 l 326 1009 q 332 1034 326 1021 l 334 1047 l 335 1050 l 335 1058 l 337 1065 q 343 1092 341 1077 q 346 1105 345 1101 q 349 1113 347 1109 l 352 1128 q 358 1156 352 1141 l 358 1162 q 368 1205 366 1188 l 375 1236 m 53 -1 q 153 99 60 82 q 275 8 245 102 q 126 -106 269 -129 q 53 -1 53 -84 z "},"\"":{"ha":592,"x_min":33,"x_max":541,"o":"m 395 1148 l 471 1146 q 490 1145 482 1143 l 532 1143 l 539 1113 l 541 1102 l 541 1045 q 324 843 521 858 q 372 1029 427 965 l 348 1024 q 317 1021 330 1021 l 319 1029 l 320 1044 l 320 1053 l 323 1073 l 323 1081 l 324 1093 l 326 1102 l 327 1113 l 327 1122 q 330 1149 330 1138 l 391 1149 l 395 1148 m 110 1147 l 186 1146 q 205 1145 197 1143 l 248 1143 l 254 1113 l 256 1102 l 256 1045 q 39 842 236 858 q 86 1029 142 964 l 63 1024 q 33 1021 45 1021 l 34 1029 l 35 1044 l 35 1053 l 38 1073 l 38 1081 l 39 1093 l 41 1102 l 42 1113 l 42 1122 q 45 1149 45 1138 l 106 1149 l 110 1147 z "},"#":{"ha":431,"x_min":0,"x_max":0,"o":""},"$":{"ha":600,"x_min":52,"x_max":654,"o":"m 52 644 q 194 826 54 764 l 287 851 q 512 814 428 882 l 515 804 q 505 789 511 798 l 500 782 q 492 770 496 779 q 481 758 486 766 l 464 733 q 446 711 455 721 l 444 708 l 418 711 l 414 711 q 393 713 405 713 q 379 714 391 713 q 361 715 368 715 l 355 716 l 349 715 l 303 713 l 293 712 q 227 659 249 697 q 373 536 211 583 q 393 527 381 532 l 399 525 l 403 524 l 423 515 l 428 514 l 439 509 q 546 237 654 412 q 398 149 496 173 q 105 168 263 111 q 96 176 100 171 l 102 197 l 104 204 l 104 208 l 109 221 l 109 224 l 115 245 l 115 248 q 119 265 118 254 l 127 297 q 448 321 305 184 q 458 348 455 333 l 459 351 q 417 399 452 381 q 377 414 401 406 l 356 420 l 347 422 q 64 604 140 437 q 54 640 57 618 l 52 644 m 281 958 l 285 960 l 309 954 l 311 951 l 326 947 l 328 947 q 338 945 332 946 l 358 939 q 361 939 359 939 l 389 931 l 391 931 l 396 929 l 398 920 q 398 902 397 912 l 398 890 q 398 876 397 884 l 397 870 l 398 648 l 398 641 l 398 562 q 398 548 399 557 l 399 536 l 398 524 l 398 501 l 399 488 l 398 438 q 398 422 399 431 l 398 347 l 399 340 l 398 306 q 399 292 398 300 l 398 287 l 398 271 l 399 259 l 398 182 l 399 170 l 398 164 l 398 112 l 399 105 l 398 50 q 389 50 395 49 l 382 49 l 374 46 q 367 46 371 47 l 362 47 l 359 46 l 354 45 q 352 70 352 56 l 351 75 l 349 104 q 347 136 347 122 l 346 142 q 343 178 345 157 l 340 208 l 340 219 l 337 252 l 336 261 l 334 291 q 332 306 334 300 q 331 327 333 315 l 330 337 l 330 342 l 328 359 q 327 380 328 369 l 323 427 q 321 448 323 436 l 321 454 l 319 471 q 318 490 319 480 l 317 501 l 313 549 l 313 555 q 312 562 313 557 q 310 585 312 572 q 309 596 309 593 q 309 616 309 600 l 307 623 l 304 652 l 304 661 l 302 685 q 301 706 301 694 l 300 718 l 300 721 l 299 727 l 298 734 l 298 742 l 296 760 q 295 782 295 770 l 294 793 l 294 796 l 292 802 l 292 809 q 290 832 292 820 q 289 844 290 840 q 290 850 289 847 l 288 864 q 286 888 286 875 l 286 893 q 282 930 284 916 l 281 958 z "},"&":{"ha":836,"x_min":24,"x_max":788,"o":"m 788 3 l 572 3 l 509 103 q 409 9 463 40 q 293 -22 354 -22 q 96 79 168 -22 q 24 343 24 180 q 36 461 24 411 q 66 551 47 511 q 106 617 83 589 q 151 665 130 645 q 114 716 132 689 q 84 775 97 743 q 65 842 72 805 q 58 926 58 880 q 72 1031 58 982 q 113 1118 86 1080 q 189 1184 141 1159 q 302 1209 236 1209 q 400 1190 357 1209 q 473 1136 443 1171 q 515 1056 500 1103 q 530 954 530 1008 q 524 873 530 917 q 501 791 517 829 q 454 714 484 749 q 375 650 425 678 l 514 437 l 514 692 l 684 692 l 684 604 q 665 425 684 511 q 615 283 647 339 l 788 19 l 788 3 m 360 918 q 353 984 360 960 q 335 1021 346 1008 q 312 1037 324 1034 q 294 1040 300 1040 q 276 1037 286 1040 q 254 1020 266 1034 q 238 987 245 1009 q 231 930 231 966 q 252 839 231 883 q 309 749 274 795 q 347 827 334 785 q 360 918 360 869 m 429 237 l 235 538 q 214 481 226 522 q 202 390 202 440 q 214 298 202 337 q 243 235 226 260 q 283 197 261 210 q 327 184 306 184 q 382 195 358 184 q 429 237 406 206 z "},"'":{"ha":349,"x_min":58,"x_max":281,"o":"m 136 1147 l 212 1146 q 231 1145 223 1143 l 273 1143 l 280 1113 l 281 1102 l 281 1045 q 65 842 262 858 q 112 1029 168 964 l 89 1024 q 58 1021 71 1021 l 60 1029 l 61 1044 l 61 1053 l 64 1073 l 64 1081 l 65 1093 l 66 1102 l 68 1113 l 68 1122 q 71 1149 71 1138 l 132 1149 l 136 1147 z "},"(":{"ha":416,"x_min":17,"x_max":399,"o":"m 399 -82 l 208 -82 q 64 232 111 71 q 17 585 17 393 q 64 939 17 777 q 208 1253 111 1100 l 399 1253 l 399 1233 q 320 1121 357 1183 q 251 974 283 1058 q 202 795 221 893 q 183 585 183 696 q 201 375 183 469 q 251 197 220 281 q 320 51 281 117 q 399 -62 358 -14 l 399 -82 z "},")":{"ha":353,"x_min":-54,"x_max":343,"o":"m -54 -59 q 27 53 -12 -12 q 98 197 66 118 q 151 375 131 281 q 174 585 172 469 q 158 794 176 696 q 112 975 141 893 q 45 1123 81 1059 q -31 1236 9 1186 l -31 1256 l 160 1253 q 299 936 255 1098 q 340 582 343 774 q 287 229 336 390 q 137 -82 237 68 l -54 -79 l -54 -59 z "},"*":{"ha":334,"x_min":0,"x_max":0,"o":""},"+":{"ha":431,"x_min":0,"x_max":0,"o":""},",":{"ha":323,"x_min":63,"x_max":286,"o":"m 140 355 l 217 354 q 236 353 228 351 l 278 351 l 285 321 l 286 310 l 286 253 q 70 50 267 66 q 117 237 172 172 l 94 232 q 63 229 75 229 l 64 237 l 66 252 l 66 261 l 68 281 l 68 289 l 70 300 l 71 310 l 73 321 l 73 330 q 75 357 75 346 l 136 357 l 140 355 z "},"-":{"ha":593,"x_min":14,"x_max":536,"o":"m 536 617 l 536 408 l 14 482 l 28 591 l 85 597 l 90 595 l 105 597 q 125 597 113 599 l 150 601 l 156 599 l 182 602 q 191 601 185 601 l 212 604 q 220 602 216 602 l 235 604 q 255 604 243 605 l 265 606 q 279 605 271 608 l 306 608 l 321 608 q 342 608 330 610 l 371 611 l 374 609 l 404 613 l 406 611 l 432 614 l 439 613 l 467 615 l 470 614 l 498 617 l 501 615 l 528 618 l 536 617 z "},".":{"ha":310,"x_min":30,"x_max":279,"o":"m 50 231 q 148 293 80 284 q 279 218 247 300 q 153 117 279 113 q 50 231 30 127 z "},"/":{"ha":818,"x_min":16,"x_max":783,"o":"m 16 -43 q 663 1249 614 1050 l 783 964 l 27 -146 l 16 -43 l 16 -43 z "},":":{"ha":420,"x_min":128,"x_max":378,"o":"m 149 603 q 246 665 178 656 q 378 589 345 672 q 251 488 378 485 q 149 603 128 498 m 149 182 q 246 243 178 235 q 378 168 345 251 q 251 67 378 64 q 149 182 128 77 z "},";":{"ha":161,"x_min":0,"x_max":0,"o":""},"<":{"ha":431,"x_min":0,"x_max":0,"o":""},"=":{"ha":431,"x_min":0,"x_max":0,"o":""},">":{"ha":431,"x_min":0,"x_max":0,"o":""},"?":{"ha":841,"x_min":39,"x_max":920,"o":"m 287 1122 l 496 1122 l 502 1120 l 519 1120 l 534 1119 l 555 1118 l 559 1116 q 584 1113 570 1116 q 604 1109 593 1113 q 615 1108 612 1109 l 621 1108 l 640 1105 q 645 1103 642 1103 q 652 1102 649 1102 q 679 1096 663 1100 l 705 1089 q 722 1083 713 1088 l 764 1069 l 774 1065 l 812 1046 l 819 1042 l 823 1038 l 849 1021 q 914 935 890 989 q 919 888 920 916 l 919 842 l 916 825 l 914 815 l 900 775 l 894 764 l 889 755 q 871 726 880 738 l 866 718 l 832 681 l 823 673 q 810 662 814 665 l 804 656 q 776 635 793 650 l 773 634 l 753 620 l 741 614 l 734 609 l 730 608 l 697 591 q 674 580 688 585 l 657 572 q 633 563 649 568 l 562 536 l 557 536 l 543 530 l 538 530 q 511 523 527 526 q 492 518 503 519 l 454 507 l 441 505 l 432 503 l 420 501 q 414 499 418 499 q 415 471 412 488 l 417 464 l 417 459 q 418 441 418 452 q 420 425 420 434 l 421 419 q 426 380 421 405 l 426 369 q 429 354 428 358 l 429 343 q 433 319 432 328 q 434 301 434 311 l 435 290 l 437 279 l 439 273 l 439 262 l 441 242 l 441 233 q 410 230 429 230 l 406 230 l 389 229 q 358 225 376 225 l 353 224 l 330 222 q 309 220 321 220 l 260 216 l 252 214 l 241 261 q 235 286 237 276 l 234 294 q 231 304 233 295 l 229 313 l 224 329 l 223 335 q 217 361 222 346 q 211 387 216 372 l 208 397 l 206 408 l 195 448 l 195 453 l 186 488 q 181 512 183 498 l 168 563 l 166 570 l 163 583 l 163 588 l 147 645 q 144 662 147 652 l 254 665 l 263 667 l 311 670 l 319 671 q 356 676 339 673 l 374 677 l 393 682 l 401 682 l 428 688 q 445 692 439 690 l 457 694 l 471 699 l 475 699 l 502 709 l 508 710 l 541 724 q 556 732 547 728 l 561 734 q 592 775 581 749 q 564 817 585 798 q 547 826 557 821 l 533 834 l 434 865 l 429 865 q 418 868 428 867 l 412 869 l 387 873 l 380 874 l 372 876 l 366 878 q 339 880 355 878 l 333 880 l 330 882 q 296 885 316 882 l 265 886 l 262 888 l 245 888 l 235 890 l 199 890 l 191 891 l 88 890 q 84 910 85 897 l 79 924 l 79 930 q 75 949 76 938 l 73 955 l 66 979 l 65 985 l 62 995 q 54 1026 59 1014 q 48 1053 53 1037 l 42 1080 l 41 1083 q 39 1099 39 1089 q 77 1103 53 1099 l 88 1105 q 104 1107 99 1105 l 115 1107 l 129 1108 q 155 1111 140 1111 l 169 1113 l 180 1114 l 210 1116 q 231 1118 218 1118 l 257 1119 l 277 1120 l 287 1122 m 240 92 q 361 168 277 157 q 524 75 484 177 q 367 -49 524 -54 q 240 92 216 -37 z "},"@":{"ha":393,"x_min":41,"x_max":1182,"o":"m 1020 869 q 1139 687 1096 793 q 1182 450 1182 581 q 1155 257 1182 355 q 1087 94 1128 159 l 744 94 l 733 147 q 659 106 694 121 q 555 91 623 91 q 376 182 444 91 q 307 428 307 273 q 330 573 307 511 q 393 681 353 635 q 484 749 431 724 q 589 773 536 773 q 668 756 633 773 q 722 722 703 740 l 722 764 l 879 764 l 879 210 l 994 210 q 1030 327 1019 264 q 1042 447 1042 389 q 1010 648 1042 562 q 922 791 979 734 q 787 878 865 850 q 620 907 710 907 q 456 873 534 907 q 319 781 378 839 q 221 633 259 722 q 184 439 184 545 q 219 235 184 323 q 314 87 255 146 q 451 -2 373 28 q 616 -33 529 -33 q 747 -22 673 -33 q 878 5 821 -12 l 878 -126 q 752 -148 814 -140 q 616 -155 690 -155 q 386 -113 492 -155 q 203 9 281 -70 q 84 197 127 87 q 41 439 41 308 q 85 672 41 565 q 209 860 130 780 q 392 984 286 939 q 619 1029 499 1029 q 842 987 739 1029 q 1020 869 945 945 m 718 274 l 718 616 q 667 636 690 630 q 613 643 643 643 q 513 586 548 643 q 477 430 477 529 q 507 271 477 323 q 603 220 536 220 q 665 234 638 220 q 718 274 691 248 z "},"A":{"ha":643,"x_min":12,"x_max":736,"o":"m 251 1179 q 265 1155 258 1171 l 268 1151 l 309 1060 l 317 1044 l 324 1030 l 332 1012 q 343 988 334 1002 l 351 968 l 358 956 l 385 893 l 390 885 q 400 863 397 871 l 429 799 q 437 783 434 793 l 446 760 l 454 746 l 545 549 l 551 535 l 598 433 q 608 416 601 427 l 615 396 l 620 389 l 623 380 q 627 372 625 378 l 671 275 l 676 268 l 679 260 l 703 210 l 706 201 l 713 187 q 723 163 720 173 l 728 157 l 732 145 q 736 128 735 139 l 705 118 q 671 107 691 115 l 665 105 l 642 99 q 634 96 640 97 l 591 81 l 581 78 l 571 75 l 530 62 l 511 55 l 496 54 l 477 92 q 469 106 470 102 l 465 112 l 455 132 l 450 138 l 446 150 l 427 184 l 235 170 q 224 113 226 146 l 222 107 l 218 78 q 212 42 217 63 l 211 34 l 172 31 l 168 33 l 149 31 l 117 31 q 86 33 99 32 l 14 33 q 19 74 12 51 l 35 148 l 38 163 l 39 171 l 50 224 l 52 232 l 62 285 q 70 323 68 300 l 73 338 l 77 346 l 77 353 l 79 365 l 85 384 l 86 395 l 121 565 l 126 589 l 156 728 l 157 736 l 161 749 l 162 757 q 169 787 163 770 l 182 854 l 184 863 l 198 930 l 203 953 l 234 1097 l 234 1103 l 237 1111 l 251 1179 m 302 659 l 301 640 l 296 617 l 297 611 l 294 598 l 289 552 q 286 537 288 542 l 286 529 l 278 472 l 277 462 q 271 422 272 439 l 267 399 l 265 387 l 264 374 l 295 370 l 326 370 q 343 369 333 368 l 364 366 q 378 365 374 367 l 385 368 q 374 400 382 382 l 371 412 l 366 437 q 357 469 360 451 l 354 479 l 343 514 l 340 522 l 334 551 l 332 557 l 307 647 l 307 653 l 302 659 z "},"B":{"ha":541,"x_min":24,"x_max":730,"o":"m 79 1251 l 165 1251 q 551 1128 387 1267 l 562 1116 l 604 1053 l 614 1028 q 406 505 730 723 q 509 336 505 448 q 518 286 518 315 q 492 218 513 254 l 490 214 q 465 187 482 201 l 457 178 l 452 176 l 444 168 l 427 154 l 423 153 q 125 75 127 54 l 121 130 l 119 138 l 112 224 l 110 231 l 108 273 l 106 279 l 104 321 l 102 326 l 102 340 l 100 349 l 100 368 q 98 393 98 378 l 95 397 l 95 412 l 93 418 l 93 435 q 89 465 93 448 l 89 481 q 85 534 85 503 q 83 543 83 536 l 83 555 l 81 561 l 81 578 l 79 593 l 77 610 l 74 652 l 72 658 l 70 700 l 68 706 l 68 721 q 64 763 64 738 l 62 774 l 62 795 l 60 809 l 58 820 l 56 862 l 53 868 q 49 914 56 887 l 49 931 q 45 984 45 952 q 43 992 43 986 l 43 1005 l 41 1011 l 32 1110 l 30 1126 l 26 1192 l 24 1208 l 24 1242 q 66 1249 41 1246 l 79 1251 m 379 824 q 228 950 362 942 q 230 887 226 925 l 230 855 l 232 847 l 232 811 q 234 803 234 809 l 236 727 l 238 715 q 240 681 236 700 l 240 664 q 379 824 394 696 m 354 315 q 253 414 345 401 q 253 370 249 395 l 253 332 q 255 311 255 323 l 255 290 l 257 281 l 259 191 q 354 315 358 212 z "},"C":{"ha":820,"x_min":8,"x_max":833,"o":"m 623 1151 q 645 1153 633 1149 l 692 1149 q 825 1112 760 1147 q 831 1093 833 1105 q 807 1050 820 1078 l 800 1034 l 792 1021 l 766 971 q 746 936 756 958 l 719 884 q 309 634 423 880 q 364 252 239 440 q 651 392 477 145 l 661 360 l 664 353 l 703 216 l 707 208 l 708 199 l 718 168 l 722 161 l 729 132 q 357 -3 571 -24 q 35 262 125 21 l 31 275 l 19 334 q 148 790 8 566 q 536 1131 273 1017 l 595 1147 l 623 1151 l 623 1151 z "},"D":{"ha":895,"x_min":-4,"x_max":998,"o":"m 268 1244 l 429 1244 q 469 1242 446 1246 q 514 1238 496 1242 l 526 1236 l 534 1236 l 542 1234 l 570 1231 l 578 1229 l 616 1219 l 629 1217 l 701 1190 q 715 1182 703 1188 l 752 1164 l 764 1156 l 768 1152 l 780 1144 l 784 1142 l 836 1093 l 863 1055 l 869 1047 l 889 999 q 709 374 998 636 l 651 328 l 647 323 l 633 315 l 625 309 l 568 275 q 550 265 562 269 q 532 255 544 259 l 526 251 l 506 241 l 500 239 q 460 219 490 233 l 444 213 l 421 203 q 379 186 409 201 q 359 180 371 182 l 309 162 l 294 158 l 280 154 l 272 152 l 264 151 q 236 142 248 144 l 228 140 l 191 132 q 165 132 177 128 l 159 176 l 155 191 l 153 203 l 153 209 l 145 251 l 143 263 l 141 277 l 139 290 q 134 307 135 301 q 133 321 133 313 l 165 323 l 181 326 l 240 330 l 246 332 l 244 396 l 242 404 l 242 448 l 240 458 l 240 489 q 238 513 242 501 l 238 566 q 236 574 236 568 l 234 676 l 232 684 l 232 717 l 230 732 l 228 827 l 226 844 l 226 890 l 224 906 l 224 946 l 222 952 l 222 997 q 191 999 208 1001 q 157 1001 177 1003 l 151 1003 l 125 1003 l 103 1005 q 66 1007 81 1007 q 46 1009 52 1009 l 24 1009 l 10 1011 l 6 1076 q 2 1105 4 1093 l 2 1128 q -2 1160 0 1148 l -2 1180 l -4 1206 l 20 1211 l 32 1213 l 38 1215 l 73 1221 q 93 1225 81 1221 q 106 1227 103 1225 l 115 1227 l 159 1233 l 172 1234 l 185 1236 l 256 1242 l 268 1244 m 687 815 q 409 1017 616 1013 q 397 1007 401 1017 l 397 384 q 421 388 409 384 l 431 390 l 454 396 q 687 815 732 497 z "},"E":{"ha":558,"x_min":-10,"x_max":594,"o":"m 576 1228 l 593 1227 q 588 1197 594 1213 l 585 1178 l 582 1166 l 580 1162 l 577 1148 l 570 1120 l 568 1105 l 564 1095 l 562 1080 l 559 1067 l 555 1057 l 548 1029 l 547 1019 l 544 1006 l 541 996 l 509 992 l 498 991 q 463 985 484 990 q 442 983 455 986 l 434 983 q 401 980 419 981 l 389 977 l 380 977 l 366 974 l 349 973 l 313 967 q 287 965 295 964 q 281 939 281 955 l 278 932 l 275 911 l 274 899 l 272 892 l 271 880 l 267 865 l 264 856 l 264 842 l 260 821 q 258 812 258 819 q 256 787 254 801 l 308 802 l 323 806 l 352 814 l 371 819 l 380 821 l 406 829 l 414 831 l 459 844 l 469 846 l 482 850 l 492 852 l 492 784 q 492 753 495 770 l 493 749 l 492 700 l 494 694 l 492 621 l 494 614 l 493 597 l 435 587 q 412 585 425 588 q 376 578 399 582 l 319 568 l 298 564 l 283 562 q 241 555 267 558 l 216 549 q 212 513 213 527 q 206 480 208 492 l 201 437 l 198 429 l 193 385 l 189 362 l 186 352 l 182 317 l 183 305 l 235 318 l 243 319 l 256 323 l 262 322 l 271 326 l 298 330 l 306 331 l 334 338 l 342 339 l 420 357 q 467 366 437 361 q 481 368 477 369 l 534 379 q 529 349 534 365 l 526 330 l 523 319 l 521 315 l 517 300 l 517 294 q 512 280 515 292 l 505 248 l 503 237 l 500 227 l 498 220 l 494 210 l 484 161 l 482 149 q 437 144 463 144 l 410 140 q 385 137 399 140 l 362 136 l 352 136 l 343 134 l 333 132 l 315 132 q 277 128 300 128 q 260 125 267 127 q 242 124 252 124 q 221 121 230 123 l 207 121 l 161 116 l 147 115 q 129 113 136 113 q 114 112 122 113 q 95 108 106 111 q 47 103 64 109 q 27 102 35 102 l 13 101 q 4 100 10 100 l -10 101 l 4 301 q 9 336 7 315 l 14 416 l 17 421 l 24 517 q 28 542 24 528 l 34 642 l 37 650 l 44 750 q 48 783 47 764 l 49 788 q 49 822 52 803 l 54 864 q 57 880 56 870 l 62 944 q 66 984 60 960 l 73 1086 q 77 1116 77 1099 l 81 1164 q 114 1168 96 1167 l 124 1169 q 157 1175 138 1171 l 174 1176 l 180 1177 l 249 1185 l 261 1189 l 271 1187 l 284 1191 l 313 1193 q 332 1196 326 1196 l 346 1199 l 359 1200 l 373 1201 l 385 1202 l 410 1206 l 416 1206 l 452 1213 l 465 1213 l 494 1217 l 510 1219 l 535 1223 l 553 1223 l 576 1228 z "},"F":{"ha":422,"x_min":-10,"x_max":539,"o":"m 524 1199 l 539 1199 l 526 842 l 197 853 l 191 851 l 187 750 l 184 727 l 176 541 l 173 526 q 220 533 192 526 l 235 534 q 256 541 245 536 q 277 544 264 540 l 290 545 l 304 547 q 312 550 307 549 q 323 552 317 551 q 343 554 328 553 q 351 556 345 556 q 355 537 351 549 q 358 500 355 522 l 359 486 q 363 454 361 469 l 366 431 q 371 384 370 414 l 372 371 l 224 378 q 180 382 212 381 l 165 380 l 164 332 l 161 309 l 157 210 l 155 197 l 147 37 l 113 21 q 59 -1 94 11 l 44 -7 l 38 -6 l 37 28 l 35 45 l 36 68 l 34 74 l 31 170 l 29 180 l 29 222 q 28 254 25 237 l 26 258 l 23 356 l 21 362 l 20 413 l 20 437 q 16 471 18 458 l 17 492 l 16 507 l 12 595 q 11 625 10 602 q 10 650 9 635 l 8 654 l 6 724 l 4 733 l 5 750 l 3 758 l 4 777 l 2 797 l 1 828 l 0 858 l -1 886 l -3 892 l -2 916 q -3 937 -4 924 l -5 954 q -5 991 -6 977 l -7 1019 q -8 1036 -9 1025 l -10 1051 l -8 1099 l 7 1103 l 24 1105 q 60 1112 37 1108 l 73 1114 l 81 1116 l 94 1119 l 106 1121 l 117 1122 q 151 1130 132 1124 l 164 1131 l 177 1133 l 201 1139 l 213 1140 l 262 1149 l 275 1153 l 311 1158 l 321 1162 l 330 1162 q 338 1164 332 1164 q 356 1168 343 1165 q 386 1173 369 1171 l 422 1179 q 456 1187 437 1181 l 463 1187 l 524 1199 z "},"G":{"ha":802,"x_min":20,"x_max":849,"o":"m 190 967 q 331 1041 244 1022 q 658 967 494 1053 l 601 832 l 590 806 q 575 771 582 793 q 266 567 345 932 l 259 541 l 259 534 l 251 497 q 351 220 259 351 l 383 188 l 416 166 q 433 157 422 164 l 455 149 l 481 144 l 488 142 l 501 142 l 507 140 l 555 142 q 562 151 559 144 l 555 175 l 553 192 l 551 199 q 547 222 551 210 l 547 229 q 543 253 543 240 l 541 262 q 536 286 536 277 l 532 303 l 532 310 l 525 334 q 523 350 523 345 q 520 362 523 355 q 518 377 518 368 l 514 379 l 499 371 q 481 362 492 368 l 475 360 l 425 336 l 412 371 q 403 395 410 382 l 390 432 q 383 454 386 440 l 361 512 l 359 523 l 438 553 l 453 558 q 481 569 464 564 l 642 630 q 682 645 658 634 l 686 647 l 732 663 l 753 600 q 762 575 755 589 l 769 551 l 773 543 l 775 534 l 778 526 l 795 475 l 797 467 q 766 447 786 458 l 706 410 l 719 366 q 728 338 721 353 q 734 316 728 330 l 736 308 l 739 299 l 741 290 l 760 222 q 769 192 764 212 l 780 159 l 786 140 l 789 127 l 817 33 q 821 20 819 24 l 841 -45 l 843 -58 q 849 -91 849 -71 q 401 -76 634 -161 l 303 -19 q 277 3 294 -10 l 259 20 q 244 35 253 24 l 229 51 l 224 57 q 22 517 24 244 q 183 967 20 754 l 190 967 l 190 967 z "},"H":{"ha":684,"x_min":22,"x_max":701,"o":"m 265 1253 l 284 1253 l 302 610 l 458 648 l 460 738 l 463 879 q 465 919 463 895 l 465 999 l 468 1006 l 468 1072 q 470 1145 470 1091 q 473 1190 468 1164 l 473 1197 l 500 1202 l 515 1204 l 531 1206 l 550 1208 l 557 1211 q 583 1216 569 1211 l 609 1218 l 621 1221 l 628 1223 l 640 1223 l 654 1225 q 676 1229 670 1227 q 689 1232 682 1230 l 701 1232 l 701 1199 l 699 1183 l 696 1147 l 691 1117 l 661 823 l 659 806 l 656 770 q 621 439 621 455 l 618 422 l 616 406 q 609 345 614 370 l 609 328 q 606 311 606 326 l 604 304 l 604 288 q 600 243 600 262 l 597 227 l 595 215 q 590 163 595 194 l 588 146 l 588 137 l 585 127 l 585 109 l 583 90 q 534 102 562 92 l 515 106 q 498 109 503 109 l 473 116 l 465 118 l 465 231 l 468 257 l 468 349 q 470 389 470 366 l 470 498 l 315 471 q 307 389 307 439 l 307 290 q 305 257 305 276 l 305 163 l 302 144 l 302 62 l 254 17 l 246 12 l 235 1 l 227 -4 q 211 -20 225 -9 l 204 -25 l 195 -35 q 185 -37 192 -37 q 178 10 180 -18 l 178 17 q 176 33 176 20 l 171 66 q 164 118 166 85 l 161 127 q 159 161 159 142 l 157 177 q 152 208 152 189 l 150 229 l 147 236 l 147 250 l 145 267 q 142 283 142 269 l 140 297 l 136 330 l 133 347 l 131 363 l 128 382 l 126 394 l 126 401 l 121 439 l 119 453 q 117 476 117 465 l 115 486 q 51 964 56 924 q 47 1013 51 987 q 35 1098 43 1039 l 32 1112 l 32 1122 l 30 1131 q 25 1164 30 1145 l 22 1178 l 22 1213 q 65 1221 39 1213 l 72 1221 l 91 1225 q 107 1227 102 1225 q 133 1232 119 1227 l 145 1232 l 192 1242 l 204 1244 l 230 1246 l 265 1253 z "},"I":{"ha":382,"x_min":57,"x_max":382,"o":"m 57 1096 l 378 1145 q 376 1083 382 1121 l 377 1075 l 375 1062 l 374 1053 l 373 1020 q 371 982 370 999 l 370 976 l 365 900 q 364 878 365 886 q 364 865 363 871 q 362 827 360 849 l 360 823 l 352 665 l 351 654 l 348 608 l 346 585 q 346 570 345 574 l 344 557 l 344 545 l 343 522 l 342 511 l 341 507 l 340 484 l 338 461 q 336 433 340 449 l 336 419 l 334 396 q 332 343 335 375 l 331 335 l 330 312 l 327 291 l 327 280 q 326 249 328 262 l 321 186 l 321 169 q 319 134 319 156 l 317 119 l 317 102 l 313 50 l 313 35 q 275 35 298 26 l 220 45 q 210 48 217 47 l 195 52 l 176 170 l 176 180 l 171 210 q 167 252 168 227 l 158 302 l 159 315 l 149 370 q 149 386 151 376 l 142 431 q 141 448 143 437 l 136 477 q 132 519 134 494 l 128 539 q 125 568 124 551 l 117 623 l 114 653 q 109 699 109 671 l 99 757 l 100 764 l 90 825 l 92 829 l 83 882 l 83 896 l 74 953 l 75 960 l 65 1019 l 66 1025 l 58 1080 l 57 1096 z "},"J":{"ha":698,"x_min":-12,"x_max":793,"o":"m 537 1240 l 635 1240 q 656 1238 644 1240 l 765 1236 l 793 1234 l 793 1131 l 791 1119 l 787 1036 l 785 1006 l 780 956 l 778 949 l 776 905 l 774 899 l 771 874 l 771 867 l 767 830 l 765 806 q 760 772 760 790 l 758 760 l 756 755 l 756 746 l 747 691 l 747 682 q 745 674 745 680 q 743 665 745 669 l 741 647 l 739 636 l 730 591 l 727 574 l 725 561 l 723 550 l 716 528 l 714 517 l 683 395 l 681 387 l 679 378 l 650 298 l 644 283 q 635 258 641 272 l 632 252 l 619 227 q 610 210 617 221 q 590 174 604 195 q 568 139 579 155 l 564 135 q 528 95 551 115 l 524 91 q 498 75 515 84 l 493 73 q 474 59 484 64 q 431 40 465 53 l 425 35 q -10 106 213 -9 l -12 117 l 1 135 l 3 139 q 21 163 12 148 l 30 174 l 37 183 l 52 208 l 63 223 l 67 227 l 87 256 l 94 265 l 107 285 l 111 290 l 127 313 l 134 322 l 142 334 q 463 331 341 212 l 482 364 l 484 371 q 498 397 489 385 l 505 411 q 513 433 511 420 l 522 455 q 526 475 522 464 l 533 512 l 535 526 q 540 554 537 545 l 540 570 l 542 589 l 544 610 l 546 633 q 549 673 549 658 l 549 698 q 551 733 551 713 l 551 793 q 553 843 555 812 l 551 964 l 549 989 l 549 1046 l 546 1053 l 546 1086 q 544 1108 546 1095 l 540 1217 l 537 1240 z "},"K":{"ha":746,"x_min":16,"x_max":772,"o":"m 654 1264 l 659 1264 l 680 1210 l 682 1202 l 749 1017 q 753 1004 753 1008 l 772 957 l 772 941 l 745 907 q 732 894 740 905 l 701 852 l 693 844 l 686 836 q 654 796 673 823 l 631 768 q 612 747 619 753 l 575 699 q 568 690 573 696 l 480 578 q 501 553 489 569 l 519 534 l 522 530 q 541 508 529 524 q 570 473 561 489 l 582 460 l 591 452 q 605 435 601 441 q 624 413 614 426 l 633 404 l 656 376 l 677 352 l 688 339 l 693 335 q 721 302 705 324 q 737 285 730 292 q 707 241 728 266 l 703 237 l 696 227 q 684 214 693 224 l 640 157 l 629 142 l 621 134 l 612 127 q 591 157 603 138 l 580 172 l 568 190 q 552 214 564 199 l 547 222 l 517 266 l 515 270 l 448 368 l 443 372 l 431 389 l 406 426 l 399 439 l 387 454 q 385 393 380 428 l 385 363 q 387 346 387 357 l 389 261 q 392 231 392 248 l 394 183 q 397 155 392 170 l 399 66 l 350 40 l 345 36 l 290 5 l 278 -3 l 271 -5 l 237 -27 l 225 -27 l 218 21 l 214 36 l 211 49 l 209 62 q 202 103 206 85 q 195 138 199 125 l 193 155 l 190 172 q 181 222 183 201 l 178 235 l 172 268 q 167 292 172 279 l 165 309 q 161 334 162 326 q 158 350 160 341 l 153 368 q 151 389 151 380 l 149 404 l 146 411 q 142 435 146 422 l 142 443 q 134 482 137 458 l 132 489 l 121 556 q 114 593 116 571 q 110 615 111 608 q 106 631 109 623 l 93 703 l 93 712 q 90 720 90 714 l 83 758 l 77 790 q 74 812 74 803 l 72 827 l 70 840 q 65 860 67 852 q 62 879 62 868 q 58 901 58 892 l 56 909 l 54 924 l 51 937 l 49 952 q 44 979 44 970 q 37 1017 39 994 l 35 1024 l 31 1054 l 28 1061 l 21 1108 l 16 1124 l 16 1147 q 51 1154 31 1152 l 90 1160 q 126 1166 111 1162 q 165 1171 142 1169 l 248 1184 l 264 1188 q 281 1191 276 1188 q 306 1195 292 1191 l 332 1197 l 348 1199 l 350 1135 q 353 1104 353 1121 l 357 981 q 359 926 361 959 l 361 918 l 364 825 q 366 798 366 814 l 369 787 l 433 898 q 439 906 436 901 q 446 918 443 911 l 461 946 l 473 965 l 513 1028 l 519 1041 l 554 1099 l 561 1110 l 596 1166 q 601 1175 598 1169 l 614 1197 q 626 1219 621 1206 l 652 1258 l 654 1264 z "},"L":{"ha":507,"x_min":16,"x_max":560,"o":"m 16 1122 l 75 1135 l 91 1136 l 111 1141 l 119 1140 l 149 1146 l 159 1147 q 186 1150 170 1151 l 248 1161 l 260 1162 q 292 1166 274 1166 l 356 1178 l 360 1177 l 384 1182 l 416 1187 q 409 1130 418 1162 l 408 1125 l 405 1100 q 401 1082 404 1094 l 395 1048 q 394 1036 395 1040 l 374 917 l 372 910 l 370 895 l 368 880 l 364 867 l 351 783 l 349 776 l 348 761 l 345 752 l 345 744 l 324 629 l 321 614 q 318 590 321 603 l 316 581 l 315 567 l 312 552 l 300 475 l 296 460 l 284 383 l 281 376 l 280 362 l 278 353 l 278 345 q 274 323 273 336 l 271 317 l 270 307 l 269 298 l 262 264 q 259 240 262 254 l 258 232 l 254 214 q 311 235 278 218 q 331 241 325 240 l 353 250 q 367 255 363 254 l 409 270 q 433 279 418 276 l 445 284 l 477 297 l 488 302 l 500 306 l 538 320 l 543 276 q 548 236 547 260 l 551 222 l 549 218 l 560 140 l 503 125 l 500 123 l 420 104 l 412 100 l 376 93 l 369 89 l 340 83 l 332 79 l 304 73 l 292 68 l 182 41 l 169 36 l 84 18 l 18 1106 l 16 1122 z "},"M":{"ha":826,"x_min":0,"x_max":849,"o":"m 741 1194 l 745 1194 l 750 1131 l 752 1124 l 754 1088 l 756 1064 l 759 1048 q 761 1034 759 1038 l 761 1025 q 765 982 761 1008 l 765 969 l 767 960 l 767 945 q 769 928 769 939 l 772 902 q 774 876 774 891 l 776 871 l 778 828 l 780 822 l 780 804 q 785 762 785 787 l 787 755 l 789 711 q 792 695 791 705 q 793 677 793 686 l 798 627 l 800 614 l 802 582 q 804 552 804 569 l 806 545 q 810 502 804 528 l 810 485 l 812 478 l 812 457 q 816 440 814 450 q 817 422 817 431 l 821 364 q 823 342 823 355 l 827 306 l 830 281 l 834 232 l 836 208 l 838 193 l 841 176 l 841 163 l 843 155 l 847 87 l 849 77 l 849 31 l 823 27 l 810 27 l 795 24 l 780 22 q 743 18 761 20 q 709 14 722 14 l 666 7 q 650 5 655 7 l 640 5 l 629 3 l 603 1 l 603 113 q 601 161 605 133 l 603 170 l 603 394 l 601 409 l 597 390 q 590 368 592 381 q 581 340 583 353 l 577 332 l 570 308 q 562 277 566 297 l 545 221 q 534 186 538 206 l 532 182 l 515 130 q 501 87 512 113 l 486 37 l 484 29 l 467 -25 q 463 -29 467 -27 l 428 33 q 424 42 426 35 l 393 96 l 391 102 l 368 144 q 353 172 363 157 l 346 184 q 333 210 339 193 l 322 228 l 320 234 l 286 295 q 277 312 283 301 l 262 338 l 257 314 l 255 303 l 246 275 l 246 269 l 225 178 q 216 141 218 159 l 212 130 l 210 115 l 205 100 l 203 90 l 199 72 l 197 59 l 191 40 q 186 16 191 29 q 160 20 173 16 l 153 20 l 117 27 q 85 31 98 29 q 77 33 82 33 q 67 35 71 33 q 43 40 56 35 l 26 42 l 9 44 l 0 46 q 9 111 0 72 l 11 122 l 13 128 l 33 237 l 35 245 l 37 260 q 40 275 39 271 q 43 284 41 279 l 43 295 q 52 330 45 310 q 58 366 54 353 l 58 372 l 65 401 l 67 412 l 69 420 l 78 474 q 80 481 80 476 q 87 511 80 487 l 87 517 q 93 552 91 530 l 98 571 l 100 589 l 109 625 l 111 638 l 117 675 q 120 692 119 686 q 122 704 121 699 q 124 715 123 709 q 127 727 125 720 q 134 760 127 742 l 136 772 l 140 802 l 145 815 l 147 828 l 149 848 q 153 867 153 861 l 162 911 l 164 926 l 167 937 l 171 951 l 173 969 l 180 1004 l 182 1014 l 184 1025 l 186 1034 l 193 1064 l 193 1075 l 195 1086 l 199 1103 q 227 1021 210 1083 q 236 997 229 1010 l 249 951 l 251 943 l 262 913 l 264 902 q 275 867 271 887 q 283 842 279 859 l 286 837 q 298 796 288 820 q 309 760 300 781 l 311 751 l 320 727 l 322 718 l 342 658 l 344 647 l 346 638 l 389 505 q 400 467 391 489 l 402 459 l 411 435 q 419 409 415 418 l 443 470 l 450 487 l 490 587 q 499 606 493 595 l 534 694 q 549 729 543 707 q 557 749 553 742 l 575 794 l 581 809 l 594 842 l 599 848 l 610 878 q 625 913 618 891 l 631 926 q 640 949 633 937 l 676 1040 l 683 1055 l 685 1062 q 690 1070 687 1064 l 696 1088 l 700 1094 l 709 1116 q 720 1141 711 1126 l 741 1194 z "},"N":{"ha":667,"x_min":35,"x_max":872,"o":"m 199 1185 q 203 1202 201 1192 q 225 1152 216 1183 l 237 1124 l 238 1117 q 250 1089 243 1107 l 255 1078 l 277 1023 l 280 1012 q 292 982 287 1000 q 303 954 297 972 l 304 947 l 336 867 l 342 858 l 347 842 q 363 800 355 825 l 376 768 l 378 762 l 388 739 q 398 711 393 729 l 408 688 l 410 681 l 430 633 q 443 596 437 618 l 460 557 l 471 527 l 630 1126 l 872 1120 q 858 1076 869 1101 l 855 1072 l 849 1057 q 836 1022 840 1034 l 821 987 q 808 958 817 974 l 805 949 q 793 920 802 937 l 789 907 q 770 862 781 891 q 760 841 765 852 q 751 816 755 831 l 711 720 l 703 702 l 699 687 q 683 650 690 673 l 680 646 q 669 618 677 633 l 661 597 q 659 589 659 596 q 640 544 650 573 l 615 486 l 612 477 l 608 469 q 593 431 600 454 l 550 330 l 549 323 l 528 278 l 524 263 l 477 151 l 475 142 l 460 109 l 456 101 l 437 53 q 416 115 423 79 l 408 138 l 404 151 l 402 160 l 379 235 l 378 241 q 368 271 372 253 l 362 294 l 357 305 q 347 344 355 321 l 342 357 l 334 385 q 328 403 332 391 q 321 425 326 412 l 302 487 q 298 505 299 494 l 295 512 l 289 532 l 284 494 l 284 478 l 281 448 l 282 441 l 273 351 l 274 342 l 269 305 l 269 281 l 261 201 l 262 195 l 254 109 l 256 102 l 250 56 l 35 83 l 52 218 l 56 242 l 62 289 l 66 304 l 72 347 q 78 381 73 362 l 85 435 l 89 450 l 97 516 q 101 533 100 523 l 108 589 l 111 595 l 119 665 l 123 675 l 127 715 q 136 763 130 733 q 146 829 137 789 l 149 857 q 157 904 152 876 l 164 956 l 168 972 l 175 1027 l 178 1039 l 187 1108 l 190 1114 l 199 1185 l 199 1185 z "},"O":{"ha":729,"x_min":10,"x_max":833,"o":"m 438 1173 l 517 1171 l 561 1156 l 616 1122 l 652 1085 l 680 1045 l 690 1030 l 700 1009 l 705 997 l 711 984 l 715 978 q 650 250 833 625 q 433 16 578 108 q 406 4 422 10 q 382 -3 393 -1 l 351 -12 l 263 -9 q 238 0 252 -7 l 222 7 q 160 46 193 18 l 130 78 l 114 101 l 108 108 l 94 133 l 90 137 q 26 505 10 301 l 28 570 q 34 608 33 585 l 36 612 l 44 663 l 49 677 l 51 689 l 56 710 l 58 718 q 68 753 65 736 l 84 798 l 87 806 q 100 840 93 818 l 104 846 l 118 879 q 127 895 121 885 l 130 901 l 138 916 q 147 932 141 922 l 150 938 l 163 960 q 176 980 170 968 l 212 1026 l 220 1036 q 237 1057 231 1046 l 298 1110 q 315 1122 304 1116 l 334 1133 l 338 1137 l 372 1155 l 387 1160 l 404 1166 l 417 1168 l 438 1173 m 479 755 q 410 790 456 789 l 380 779 q 243 487 262 673 l 240 408 q 241 379 241 396 l 253 313 q 259 296 257 307 q 271 271 265 288 q 307 231 284 250 q 340 223 321 224 q 393 244 368 227 q 509 688 553 418 q 495 724 505 703 q 488 740 494 730 l 479 755 z "},"P":{"ha":728,"x_min":40,"x_max":759,"o":"m 243 1176 q 757 810 691 1219 l 759 648 q 300 364 647 339 q 290 317 292 345 q 283 281 286 303 l 281 275 l 277 252 l 275 245 l 275 235 q 273 227 273 233 l 262 174 l 260 159 l 258 146 l 256 136 q 248 90 250 111 l 243 71 l 241 56 l 233 9 q 205 5 222 5 l 199 3 l 176 1 l 163 -1 q 142 -3 154 -1 l 133 -3 l 118 -6 l 99 -8 q 70 -10 87 -10 l 70 43 q 68 60 68 50 l 68 111 l 65 117 l 65 189 l 63 199 l 63 260 l 61 267 l 61 334 l 59 341 l 59 404 l 57 421 l 57 468 l 55 487 l 55 548 l 53 563 l 53 620 q 51 641 51 629 l 48 766 q 46 787 46 774 l 46 838 l 44 854 l 44 920 q 42 952 40 935 l 42 994 l 40 1000 l 40 1134 q 78 1144 55 1140 l 82 1147 l 99 1151 l 108 1153 l 116 1155 l 140 1159 l 148 1161 l 165 1164 q 173 1166 167 1166 l 195 1170 l 203 1170 q 235 1174 222 1172 l 243 1176 m 592 694 q 357 880 594 878 q 353 842 353 865 l 351 812 l 349 806 l 347 783 l 345 753 l 342 741 l 342 722 l 340 703 l 338 688 l 336 661 l 334 648 l 332 608 l 330 591 l 328 582 l 328 569 l 326 542 l 323 527 q 592 694 556 514 z "},"Q":{"ha":823,"x_min":4,"x_max":877,"o":"m 342 1251 l 424 1251 l 436 1249 l 447 1246 l 473 1238 l 543 1201 l 547 1197 l 560 1189 l 572 1179 l 620 1129 l 630 1117 q 724 382 846 793 l 743 372 q 762 363 751 370 l 782 355 l 788 351 l 809 343 q 817 339 811 341 l 850 322 q 877 310 863 318 q 869 292 877 302 l 857 273 q 842 250 852 264 q 823 222 836 238 l 817 211 l 807 195 l 786 164 l 784 160 l 758 119 l 755 115 l 747 102 l 741 94 l 735 83 l 728 75 l 716 55 l 710 45 l 702 45 l 615 137 l 613 141 l 597 158 q 251 96 449 -1 q 8 534 47 234 q 4 572 8 551 l 4 734 q 6 755 6 743 q 10 783 8 771 l 10 791 q 14 814 14 802 l 16 823 l 22 855 l 28 876 l 28 882 l 35 899 l 35 905 l 78 1018 l 93 1043 l 97 1053 l 115 1082 l 121 1093 l 125 1097 l 136 1111 q 153 1133 146 1123 q 175 1158 163 1141 l 183 1166 l 241 1212 l 261 1222 l 284 1232 l 298 1238 l 342 1251 m 416 895 q 366 909 393 907 q 298 866 330 901 q 237 568 220 736 q 315 316 239 437 q 366 273 334 294 l 370 271 q 445 283 408 260 l 465 304 q 430 339 449 316 l 397 374 q 408 405 399 388 l 434 475 q 443 491 436 481 l 449 507 q 500 485 467 497 q 509 481 503 483 q 517 477 511 479 l 529 471 q 533 501 529 485 l 533 530 l 535 536 l 535 586 q 453 860 533 732 l 424 888 l 416 895 z "},"R":{"ha":710,"x_min":35,"x_max":809,"o":"m 248 1178 q 506 676 809 1212 l 534 631 l 538 627 l 543 618 q 557 597 551 610 l 561 592 l 581 558 l 596 536 l 602 528 q 633 481 612 509 l 637 472 l 641 468 l 657 440 l 665 429 l 709 361 l 715 352 l 723 339 l 729 331 l 739 313 l 745 305 l 747 290 l 717 256 l 713 250 q 690 224 703 241 l 641 168 q 623 144 633 159 q 608 134 614 136 l 583 168 l 575 176 l 567 189 l 561 198 q 547 217 553 206 l 541 224 l 516 258 q 506 271 510 267 l 489 292 l 483 301 l 475 311 l 469 320 l 460 331 l 440 359 l 434 368 l 426 378 l 418 389 l 362 464 l 356 472 q 344 488 354 475 l 346 475 l 346 449 l 348 444 l 348 423 q 350 393 350 410 q 352 366 352 382 q 356 329 352 350 l 358 271 l 360 247 l 362 237 l 364 193 l 366 178 l 368 132 l 370 99 q 374 63 370 84 l 374 41 l 376 28 l 346 16 l 332 9 l 307 -1 q 284 -12 292 -10 l 250 -27 l 225 -38 l 219 -42 q 192 -49 206 -49 l 182 24 l 182 31 l 178 47 l 178 60 l 176 71 l 170 114 l 168 125 l 165 149 l 163 159 l 155 222 l 155 228 l 149 264 l 147 288 l 145 303 l 143 318 q 141 333 141 320 l 139 346 l 127 429 l 125 446 l 123 464 l 121 483 l 119 490 l 119 503 l 117 513 q 112 547 112 528 l 110 554 l 104 601 l 102 618 l 96 661 l 96 667 q 92 697 92 680 l 85 734 q 82 756 83 749 q 81 770 81 764 l 77 796 l 77 802 l 73 833 l 71 848 l 67 871 l 65 888 l 63 912 l 61 927 l 59 942 l 57 957 q 55 966 55 959 l 53 989 l 51 1004 l 49 1019 l 47 1034 l 45 1047 q 42 1068 43 1060 q 39 1092 41 1077 l 37 1107 l 35 1116 l 35 1141 l 85 1152 l 100 1154 l 112 1156 l 127 1160 l 135 1160 l 145 1162 l 161 1165 l 170 1167 l 180 1169 l 202 1171 l 221 1173 l 243 1175 l 248 1178 m 412 909 q 302 1008 391 1000 q 268 996 284 1006 q 272 961 272 981 l 274 948 l 278 888 q 282 848 282 865 l 284 837 l 286 809 l 288 798 l 290 787 q 412 909 424 798 z "},"S":{"ha":766,"x_min":18,"x_max":876,"o":"m 18 836 q 221 1147 22 1041 l 353 1190 q 674 1126 554 1242 l 679 1110 q 663 1084 673 1099 l 656 1072 q 645 1052 652 1065 q 630 1029 637 1043 l 606 988 q 581 949 593 966 l 578 944 l 541 949 l 534 949 q 504 953 522 952 q 485 956 501 954 q 458 956 469 958 l 451 958 l 442 958 l 377 954 l 362 951 q 267 861 299 926 q 476 649 245 729 q 505 634 488 642 l 513 630 l 518 629 l 547 614 l 555 612 l 570 604 q 722 136 876 437 q 512 -14 652 26 q 95 19 319 -79 q 81 33 87 23 l 90 68 l 92 80 l 93 87 l 99 109 l 99 115 l 108 150 l 108 156 q 114 185 113 167 l 127 240 q 582 281 379 45 q 598 327 593 301 l 599 332 q 539 414 589 384 q 481 440 517 427 l 452 450 l 439 455 q 37 766 144 481 q 21 827 26 789 l 18 836 l 18 836 z "},"T":{"ha":886,"x_min":-8,"x_max":989,"o":"m 906 1133 l 987 1133 q 982 1065 989 1106 q 980 1034 980 1052 l 975 1005 q 973 983 975 996 l 968 933 q 962 893 966 909 l 962 886 l 796 862 q 788 859 794 859 q 777 858 783 859 q 765 855 772 857 l 753 855 q 724 850 743 850 q 704 846 711 848 q 677 844 693 844 l 655 837 l 655 756 l 652 749 l 650 393 l 648 387 l 648 221 l 646 203 l 646 48 q 644 26 646 39 l 644 -48 l 608 -52 l 597 -55 l 559 -61 l 549 -61 l 538 -64 l 530 -66 l 511 -68 q 482 -73 500 -73 l 469 -75 l 463 -77 l 433 -77 q 429 -21 429 -55 l 427 -12 l 427 8 q 424 31 424 17 q 422 51 424 44 l 420 98 q 418 127 418 109 l 415 134 l 415 158 q 413 180 413 167 l 411 199 l 408 241 q 404 297 404 264 l 401 315 l 399 333 q 395 389 401 353 l 393 440 l 391 456 l 386 530 q 382 586 382 553 l 379 595 q 377 644 377 620 l 375 658 l 373 696 l 370 714 l 366 788 l 355 794 l 319 788 l 312 788 q 276 783 296 783 l 265 781 l 250 779 l 241 777 l 222 774 l 174 768 l 160 765 l 149 763 l 135 761 l 119 759 l 106 756 l 90 754 l 45 747 q 39 788 41 763 l 37 794 l 32 826 l 30 842 l 28 852 l 25 862 q 16 920 19 895 q 13 941 14 936 q 11 954 12 947 q 7 967 9 960 l 3 1005 l -1 1016 l -3 1043 l -8 1061 l -8 1086 q 32 1088 9 1090 l 48 1090 l 270 1099 l 274 1101 l 355 1103 l 361 1106 q 406 1108 389 1103 l 541 1113 l 545 1115 l 675 1119 l 680 1122 l 765 1124 q 783 1126 772 1126 l 906 1133 z "},"U":{"ha":828,"x_min":33,"x_max":812,"o":"m 69 1180 l 134 1175 l 147 1173 l 163 1171 l 174 1171 l 178 1168 l 199 1166 l 207 1164 l 233 1163 l 231 1117 l 230 1111 l 228 1078 q 226 1059 230 1071 l 224 1000 l 222 994 l 222 968 l 220 952 l 218 637 l 220 633 l 220 606 l 222 598 l 222 581 l 224 564 l 226 545 l 228 524 l 230 510 l 231 497 q 233 484 233 495 l 235 476 l 241 445 l 243 441 l 243 433 l 253 403 l 253 397 l 256 390 l 262 368 l 266 363 q 275 340 272 349 l 293 311 q 394 277 331 271 q 469 325 438 286 q 498 380 484 346 q 507 401 503 393 l 524 465 q 532 497 528 476 l 534 505 l 538 526 q 541 547 540 539 q 543 568 542 554 l 545 581 l 547 589 l 547 600 l 551 625 q 553 638 551 635 l 553 646 l 557 688 q 559 713 557 698 l 559 734 q 561 765 561 747 q 563 798 561 778 l 563 1015 l 561 1023 l 559 1100 l 557 1107 l 591 1105 q 622 1101 610 1103 l 629 1100 l 715 1092 l 727 1090 l 775 1084 l 789 1084 l 802 1082 l 812 1077 l 812 1008 l 810 987 q 808 960 812 975 q 806 929 810 947 q 804 905 808 918 l 802 884 l 798 826 l 796 814 l 794 805 l 791 766 l 789 755 l 787 744 l 785 730 l 785 724 l 781 709 l 781 700 l 773 661 l 771 652 l 770 638 l 768 627 q 765 621 766 625 q 764 610 764 616 q 756 583 762 598 l 754 572 l 752 564 l 737 510 l 737 505 q 727 474 731 491 l 689 376 l 684 363 l 672 342 l 670 336 l 637 283 q 624 263 633 275 l 605 239 l 599 231 l 561 193 l 551 185 l 542 177 l 532 170 l 488 144 l 473 139 l 467 135 q 328 127 404 116 q 203 191 262 142 l 199 193 l 155 240 l 147 252 l 142 260 q 121 292 132 271 l 107 319 q 100 334 105 325 l 94 347 l 88 363 l 82 382 q 73 412 77 395 l 69 420 l 65 433 l 63 447 l 52 495 l 50 507 l 40 572 l 38 587 q 37 602 38 596 l 35 646 q 33 654 33 648 l 33 882 l 35 885 q 37 916 33 899 q 38 941 35 928 l 38 958 l 40 971 q 46 1019 42 1000 q 50 1057 46 1035 l 50 1063 q 56 1101 54 1078 q 58 1121 58 1111 l 63 1147 l 65 1164 l 67 1176 l 69 1180 z "},"V":{"ha":718,"x_min":24,"x_max":760,"o":"m 745 1225 l 760 1225 l 753 1185 l 751 1181 l 751 1173 l 749 1168 l 747 1152 q 744 1138 745 1142 q 741 1130 743 1134 l 741 1122 l 735 1100 l 733 1082 q 729 1061 729 1074 q 723 1035 725 1049 l 721 1025 l 711 975 q 707 956 709 962 l 703 932 l 701 920 l 695 898 l 695 892 l 691 880 l 691 871 l 687 859 l 685 847 l 683 839 l 677 805 q 667 758 673 777 l 665 746 l 661 724 l 654 698 l 648 667 q 640 619 642 637 l 638 609 q 630 576 636 595 l 628 560 l 626 552 l 625 542 l 621 526 q 612 477 614 496 q 608 459 608 467 q 604 446 606 457 q 600 419 600 427 l 596 403 l 594 389 l 580 326 l 574 294 l 572 277 l 557 211 l 555 197 q 551 182 553 195 q 541 134 547 153 q 537 112 541 124 l 537 106 q 531 77 533 94 q 526 81 528 77 l 513 104 l 511 110 l 503 124 l 501 130 l 491 149 q 487 157 489 151 q 483 164 485 159 l 460 209 q 446 233 454 217 l 406 312 l 404 318 l 396 332 l 394 338 l 372 378 l 366 391 l 345 431 l 339 444 l 334 455 l 328 467 l 321 479 l 315 492 l 309 504 l 281 556 l 277 566 q 267 585 271 578 l 248 621 l 244 627 q 229 661 235 645 q 224 669 227 663 l 202 710 l 196 724 q 184 748 190 732 l 174 764 l 168 779 l 117 876 q 109 892 115 882 l 107 898 l 99 912 q 95 920 97 914 l 71 966 l 64 979 q 54 999 58 987 l 43 1021 q 24 1065 33 1039 l 75 1074 l 83 1074 q 91 1076 85 1076 l 125 1082 l 138 1084 l 165 1088 l 172 1090 l 182 1090 l 227 1098 l 241 1100 q 257 1103 250 1102 q 273 1106 264 1104 q 283 1080 279 1096 l 301 1025 q 311 997 309 1009 l 332 942 q 345 902 334 932 l 351 880 q 361 853 357 869 q 376 811 372 829 l 440 629 q 456 583 444 611 l 460 566 l 467 552 l 477 524 l 477 585 q 479 613 479 597 l 479 673 q 481 706 481 688 q 483 779 481 748 l 483 841 l 485 847 l 485 930 q 487 1007 489 948 q 489 1035 489 1019 l 489 1082 l 491 1098 l 491 1166 q 524 1175 505 1168 l 545 1179 q 568 1185 555 1181 l 596 1191 q 630 1199 610 1193 l 636 1199 l 648 1203 l 659 1205 l 669 1207 l 681 1209 q 721 1219 697 1215 l 745 1225 z "},"W":{"ha":915,"x_min":-68,"x_max":987,"o":"m 946 1249 q 985 1238 987 1257 q 977 1200 979 1223 l 974 1185 l 970 1171 l 968 1156 l 966 1145 l 963 1130 l 960 1115 l 958 1107 l 955 1094 l 954 1081 l 946 1047 l 941 1019 q 932 972 937 1002 q 929 958 928 962 l 924 939 l 922 930 l 915 892 l 913 879 l 909 858 q 902 830 907 847 l 903 823 l 899 811 l 896 796 l 895 787 l 890 768 q 884 736 888 753 l 861 613 l 857 602 l 852 581 l 848 555 l 846 545 q 834 481 838 511 q 825 435 829 464 q 822 420 821 424 l 819 409 l 819 402 q 811 366 814 387 q 800 311 802 334 l 797 296 l 793 281 l 792 273 l 781 218 l 777 194 l 773 183 l 768 160 l 768 145 q 760 109 762 130 l 758 98 l 752 68 q 730 107 739 84 q 706 159 724 117 q 699 176 701 165 q 669 239 684 200 l 605 375 q 583 424 590 401 l 538 515 l 536 523 l 526 541 l 524 549 q 519 557 521 551 l 501 594 q 469 630 468 678 l 454 583 l 452 574 l 420 471 l 418 463 l 397 396 l 392 383 l 367 296 q 355 257 359 280 l 309 106 l 304 92 q 286 128 292 106 l 284 132 l 271 165 l 267 173 l 252 210 l 246 224 l 243 232 l 218 292 l 216 300 l 119 536 l 117 540 l 104 573 q 99 585 100 581 l 75 642 l 72 650 l 69 659 l 41 728 l 36 736 l 28 754 l 26 764 l -27 890 q -37 913 -30 901 l -45 936 l -52 952 l -62 981 q -68 1001 -68 991 l 184 1019 q 197 980 192 1002 l 203 968 l 205 960 l 210 947 q 214 932 213 937 q 227 894 223 910 l 231 884 l 234 876 q 248 832 239 863 q 258 806 250 822 l 260 795 l 266 781 l 269 771 l 274 757 l 277 744 q 290 707 284 730 l 292 703 l 315 766 l 321 779 l 331 811 l 336 826 l 366 903 q 374 925 372 919 q 379 939 377 932 q 386 958 380 947 l 396 989 l 404 1005 l 408 1022 l 414 1037 l 427 1067 l 431 1084 l 437 1099 q 455 1137 441 1118 l 512 1013 l 519 1000 l 605 817 l 612 804 l 635 757 l 642 741 l 652 716 q 662 700 654 710 l 679 661 l 682 657 l 689 643 l 694 696 l 696 711 l 698 724 l 699 738 l 700 755 q 701 764 702 757 q 705 800 705 779 l 711 842 q 715 890 715 871 l 718 909 l 720 924 l 725 966 l 726 981 l 739 1095 l 742 1110 l 743 1123 l 743 1131 q 745 1140 745 1133 q 745 1154 746 1146 l 751 1193 l 751 1199 l 753 1216 q 795 1223 770 1215 l 816 1225 l 838 1230 l 857 1232 l 869 1234 l 924 1242 l 936 1245 l 946 1249 z "},"X":{"ha":729,"x_min":-45,"x_max":769,"o":"m 181 1217 l 189 1213 q 198 1194 192 1204 q 213 1157 202 1179 l 217 1147 l 224 1132 l 264 1042 l 266 1036 q 288 989 277 1019 l 294 976 l 311 936 q 317 921 317 925 l 321 914 l 330 893 l 334 886 l 370 802 q 375 793 372 800 q 381 780 377 787 l 394 748 l 398 744 l 415 774 l 420 778 l 435 804 l 441 814 l 445 819 l 450 827 l 456 836 l 513 927 q 532 957 519 940 l 541 972 l 545 976 q 566 1010 551 991 l 611 1080 l 613 1087 l 637 1121 l 639 1127 l 677 1187 l 684 1192 q 692 1157 686 1177 l 699 1134 l 705 1106 l 707 1097 l 715 1063 q 726 1027 720 1055 q 734 991 732 1008 l 739 979 l 741 968 l 751 934 l 754 919 l 762 893 l 769 863 l 769 848 q 743 819 756 838 l 690 759 l 677 744 l 671 736 l 648 710 l 645 706 l 635 695 l 630 688 l 607 663 l 605 659 l 564 614 l 556 604 l 545 591 q 524 565 536 582 l 513 555 l 511 550 l 492 529 l 519 467 l 526 454 l 556 384 l 560 378 l 573 348 l 583 322 l 590 309 l 628 222 q 637 205 630 216 l 643 191 l 650 178 l 656 163 q 624 126 645 146 q 583 88 611 118 q 568 75 581 84 l 562 75 l 528 122 q 507 150 517 133 l 500 159 q 494 167 496 161 l 488 174 l 479 186 l 471 197 q 454 218 465 208 l 447 229 l 441 237 q 430 250 435 245 q 411 275 424 260 l 402 286 l 351 354 l 345 361 l 307 316 q 283 288 298 303 l 271 273 q 251 252 264 265 l 247 245 l 224 220 l 222 216 l 211 205 q 198 189 202 195 l 115 94 l 113 90 l 106 84 l 100 86 l 58 154 l 53 159 l 49 167 l 43 176 l 45 189 l 83 248 l 94 265 l 98 269 l 125 316 l 132 324 l 159 369 q 177 397 168 380 l 198 429 l 200 433 l 243 499 l 198 557 l 194 561 l 185 574 q 168 597 177 582 l 162 604 l 144 627 l 138 635 l 121 656 l 109 676 q 87 703 98 686 q 68 729 77 714 l 64 733 l 34 774 l 28 783 l 23 787 l 15 800 l 9 808 l -6 825 l -15 838 l -24 848 l -26 852 l -41 872 l -45 876 l -45 886 l -15 931 l -11 936 q 13 972 -6 944 l 17 976 l 43 1015 q 62 1042 49 1027 l 71 1055 l 77 1065 l 138 1155 l 149 1170 l 155 1179 l 181 1217 z "},"Y":{"ha":629,"x_min":-39,"x_max":741,"o":"m 368 1203 l 741 1255 l 735 1243 l 728 1231 l 720 1219 l 713 1211 l 712 1206 q 703 1192 707 1202 q 655 1118 695 1181 q 642 1095 649 1109 q 630 1078 637 1087 q 614 1052 623 1068 l 568 980 l 560 968 q 545 943 554 959 q 519 903 531 920 l 513 893 l 498 871 l 492 861 l 476 834 l 467 821 l 462 813 l 445 787 l 449 744 l 448 736 l 452 705 l 454 681 l 467 553 l 466 546 l 473 479 l 473 472 l 480 404 l 479 397 l 483 372 l 483 359 q 486 323 486 345 l 489 298 l 490 283 l 497 215 l 496 209 l 500 183 l 500 163 l 503 146 l 503 137 l 505 117 l 465 111 l 452 111 l 439 111 l 418 110 l 401 108 l 387 107 q 361 106 376 108 l 314 104 l 301 103 l 292 103 l 292 115 l 289 137 l 287 163 l 288 168 l 285 194 l 283 228 l 281 248 q 278 279 281 261 l 277 300 l 276 321 q 273 357 274 335 l 269 411 q 266 448 269 427 q 266 461 267 458 l 263 481 l 264 489 q 260 526 262 504 q 259 547 258 539 q 256 584 257 562 q 256 601 254 595 l 252 623 l 252 635 l 250 654 l 251 660 l 249 673 l 249 688 l 245 715 l 188 789 q 183 797 186 791 l 174 808 l 168 815 l 160 825 l 103 900 l 96 910 l 80 930 l 73 941 l 66 951 l 13 1020 q -10 1050 2 1031 l -19 1063 l -26 1069 l -39 1092 l -2 1102 l 3 1103 l 23 1109 q 46 1116 34 1111 q 62 1121 57 1118 l 93 1128 l 104 1132 l 140 1143 q 156 1147 151 1146 l 165 1135 q 175 1122 168 1130 l 184 1104 q 194 1093 187 1103 l 201 1080 l 225 1044 l 237 1025 q 252 1003 244 1017 l 254 998 q 266 981 260 991 l 280 960 l 292 941 l 294 936 q 302 926 297 935 l 309 913 l 325 893 q 328 924 325 907 q 332 949 329 933 l 332 960 q 338 984 336 974 q 339 1006 339 995 l 347 1061 l 349 1071 l 354 1115 q 357 1141 358 1126 l 368 1203 z "},"Z":{"ha":678,"x_min":-18,"x_max":707,"o":"m 653 1147 l 665 1147 l 649 1108 l 644 1096 q 635 1074 642 1086 l 632 1065 q 620 1035 629 1053 l 618 1028 l 597 976 l 593 970 l 569 906 q 555 875 566 897 q 548 857 553 867 l 541 840 l 536 827 l 517 779 l 515 772 q 511 765 513 770 l 508 754 q 503 744 507 753 l 501 736 q 498 730 499 735 l 494 720 l 492 716 q 484 693 487 707 l 479 683 l 465 650 l 461 637 l 456 625 l 425 549 l 422 542 l 414 521 l 409 510 q 393 472 406 494 l 386 451 q 379 437 385 446 l 374 423 l 360 388 q 348 359 357 376 l 327 302 q 318 286 321 290 l 300 238 l 296 226 l 290 216 l 290 209 l 315 233 l 318 235 q 336 250 330 247 l 348 262 q 369 280 355 270 l 400 308 q 407 315 404 310 q 414 322 410 317 q 447 351 421 329 l 456 359 l 480 381 l 484 383 l 515 412 q 534 429 522 420 l 543 437 q 557 449 548 441 l 568 458 q 583 472 574 467 q 604 491 590 481 l 611 498 l 621 507 l 632 515 q 641 484 637 503 l 644 475 l 648 463 l 649 454 q 653 442 653 446 l 661 414 l 663 406 l 669 392 l 670 381 l 679 353 l 681 347 l 707 256 l 707 249 q 669 231 691 243 l 656 226 l 538 176 l 532 172 l 508 161 q 492 155 501 160 q 482 151 486 153 l 463 142 l 452 137 l 437 130 l 430 128 q 422 125 428 127 l 389 111 l 385 108 l 367 100 l 346 92 q 315 78 334 85 l 302 73 l 290 67 q 247 48 266 55 q 226 39 235 41 q 210 33 217 35 l 207 31 q 163 12 191 22 l 144 3 l 132 1 l 137 27 q 138 45 138 38 l 140 52 l 142 64 q 145 70 144 66 q 146 79 146 75 q 148 89 146 83 q 149 100 149 94 q 154 130 153 113 l 156 137 l 165 189 q 168 201 166 198 l 170 216 l 172 226 l 174 237 l 180 271 l 186 296 l 187 308 l 193 334 l 201 388 l 203 397 l 207 416 q 214 458 212 439 l 215 461 q 220 488 215 473 l 222 498 l 226 522 q 228 539 227 533 q 231 552 229 545 l 235 566 q 236 583 236 576 q 239 590 238 585 q 239 597 239 594 q 243 615 239 604 l 243 622 q 246 628 245 623 q 247 635 247 632 l 250 655 q 220 646 238 653 q 201 640 212 644 l 195 637 l 149 622 l 142 620 l 121 613 l 114 611 l 39 585 l 34 585 l 31 606 l 31 611 l 25 641 l 24 652 l 24 659 l 22 667 l 18 686 l 18 693 l 13 723 l 12 742 l 9 754 l 8 763 q 4 791 4 775 q -3 834 -1 808 l -4 846 l -6 855 l -8 867 l -9 880 l -12 892 l -13 904 l -15 918 l -16 932 q -18 946 -18 937 l -18 958 l 31 972 l 36 972 l 83 986 q 119 996 98 991 q 142 1004 130 998 l 154 1005 l 182 1014 l 189 1016 l 233 1028 l 239 1029 l 269 1038 l 278 1040 l 349 1061 l 357 1063 l 428 1082 l 431 1084 q 477 1096 458 1093 l 480 1098 l 492 1101 l 503 1103 l 578 1126 l 600 1131 l 608 1133 q 646 1143 621 1138 l 653 1147 z "},"[":{"ha":191,"x_min":0,"x_max":0,"o":""},"\\":{"ha":216,"x_min":0,"x_max":0,"o":""},"]":{"ha":212,"x_min":0,"x_max":0,"o":""},"^":{"ha":224,"x_min":0,"x_max":0,"o":""},"_":{"ha":332,"x_min":0,"x_max":0,"o":""},"`":{"ha":242,"x_min":0,"x_max":0,"o":""},"a":{"ha":603,"x_min":-15,"x_max":686,"o":"m 125 813 q 155 818 136 813 q 506 353 664 854 q 499 326 502 342 q 686 218 555 200 q 677 180 684 202 l 659 130 l 654 115 l 648 95 q 425 184 519 78 q 249 126 355 117 q 62 252 134 142 q 92 534 -15 399 q 359 561 208 635 l 364 574 q 181 703 378 721 l 157 701 l 153 698 l 138 698 l 125 696 l 109 691 l 94 689 l 85 687 l 102 743 l 104 752 l 111 772 l 114 781 l 125 813 m 364 415 q 274 500 351 487 q 197 370 180 473 q 324 314 230 273 q 364 415 367 352 z "},"b":{"ha":580,"x_min":-47,"x_max":616,"o":"m 197 1249 q 215 1241 211 1253 q 217 1203 213 1225 l 218 1094 l 220 1082 l 224 903 q 227 887 227 897 l 229 782 l 231 772 l 233 659 l 235 645 l 235 602 q 237 555 239 583 l 239 551 q 425 657 294 665 q 594 458 568 621 q 479 194 616 290 q 246 266 342 132 l 250 158 l 239 157 l 224 155 q 187 149 203 149 l 181 146 l 165 146 q 159 172 161 157 l 157 184 q 153 204 153 196 l 151 212 l 149 220 l 145 236 l 143 248 l 141 262 q 137 275 139 271 l 132 309 l 130 321 q 126 328 127 323 q 124 338 125 333 q 123 349 123 343 l 119 363 l 117 379 l 109 412 l 107 422 l 104 438 l 102 456 q 98 476 98 464 q 94 496 94 488 q 92 504 92 498 l 83 538 l 81 553 q 74 589 76 574 l 72 602 q 69 616 70 611 q 66 627 68 621 q 64 641 64 633 l 62 651 q 54 687 56 671 q 50 705 52 699 l 44 736 l 42 746 l 40 750 q 36 772 40 760 l 26 822 l 24 836 l 22 844 l 18 855 l 16 867 l 14 882 l 12 889 l 2 939 q -4 970 -2 953 l -5 981 l -9 998 l -14 1013 l -16 1028 l -32 1105 l -33 1116 l -35 1126 l -39 1139 q -43 1160 -39 1147 q -47 1179 -43 1167 l -47 1195 q -22 1201 -37 1199 l -16 1203 l 6 1207 q 28 1213 16 1209 q 56 1219 40 1213 l 100 1227 l 107 1229 q 139 1235 121 1233 q 157 1239 149 1239 q 169 1243 159 1241 l 197 1249 m 387 489 q 357 493 374 493 q 330 473 344 487 q 348 298 272 380 q 378 294 361 292 q 427 382 423 322 q 387 489 435 441 z "},"c":{"ha":525,"x_min":-18,"x_max":555,"o":"m 359 753 l 444 753 q 435 720 444 738 l 435 714 l 425 684 l 420 671 l 414 646 l 410 634 l 408 625 q 201 337 116 525 q 458 372 338 142 l 524 299 q 540 281 530 294 q 551 271 547 274 q 555 254 555 263 q 104 163 365 41 q 64 197 85 174 l 60 201 q 24 273 46 217 q 254 720 -18 546 l 318 745 l 330 747 l 359 753 z "},"d":{"ha":583,"x_min":8,"x_max":576,"o":"m 328 1230 l 338 1232 l 374 1230 l 383 1227 l 504 1218 q 511 1171 511 1198 l 515 1135 l 515 1124 l 519 1069 l 519 1059 q 520 1037 519 1046 q 522 998 522 1028 q 526 954 526 972 l 525 945 l 528 932 l 530 885 l 532 870 l 533 854 l 534 840 l 536 791 l 538 777 l 539 753 l 540 739 l 542 720 q 543 699 543 707 l 545 681 l 545 650 q 547 625 548 637 l 549 612 l 549 605 l 551 575 l 553 559 l 553 549 l 553 536 l 555 509 l 556 496 l 557 481 l 559 467 q 560 451 557 464 q 562 412 559 435 l 563 401 l 564 377 l 565 371 l 565 353 l 567 345 l 567 334 l 567 325 l 568 314 q 568 299 568 303 l 573 243 q 576 210 574 228 q 532 211 557 206 l 477 216 l 469 216 l 453 217 l 446 229 q 180 161 342 106 q 19 399 41 228 q 142 648 8 553 q 399 630 267 718 l 397 654 l 395 669 l 394 684 l 392 692 q 389 722 390 709 l 387 731 l 385 761 q 379 795 382 783 l 380 800 q 376 829 378 812 l 372 853 l 372 864 q 366 922 367 896 l 360 964 l 359 970 l 357 999 l 353 1011 l 354 1018 q 351 1044 352 1029 q 348 1065 350 1057 q 346 1082 346 1074 l 340 1129 q 338 1147 340 1136 l 336 1162 l 334 1179 l 330 1211 l 331 1215 l 328 1230 m 262 541 q 222 538 243 543 q 172 397 159 486 q 252 266 176 312 q 292 268 271 263 q 342 410 355 320 q 262 541 340 495 z "},"e":{"ha":520,"x_min":-43,"x_max":518,"o":"m 31 355 q 197 741 -43 652 q 493 572 410 783 q 518 469 500 554 l 488 460 l 473 456 l 459 452 l 445 448 l 433 444 l 414 439 l 407 435 l 391 431 l 346 418 q 305 407 330 412 l 285 401 l 271 397 l 259 394 l 247 390 l 207 376 q 287 238 193 260 q 498 324 395 245 l 503 279 l 503 264 l 505 243 l 505 235 l 509 182 q 488 168 502 176 l 459 155 l 447 151 l 412 140 q 392 135 404 138 l 386 134 l 363 127 l 279 115 l 254 115 q 31 355 83 159 m 340 553 q 220 606 311 635 q 197 469 169 554 l 355 519 l 340 553 z "},"f":{"ha":431,"x_min":-49,"x_max":478,"o":"m 171 1232 l 222 1248 q 267 1246 248 1250 l 277 1244 l 297 1237 l 301 1236 q 362 1194 329 1223 l 365 1191 q 463 996 431 1114 l 478 941 l 477 886 l 358 935 q 309 1090 360 1025 q 202 1046 244 1116 q 190 1000 193 1028 l 188 989 l 187 913 l 187 900 l 188 892 l 191 871 l 191 863 l 196 831 q 197 824 195 829 q 199 803 200 814 l 216 728 l 218 716 q 273 728 241 718 l 281 730 q 288 727 284 730 l 315 687 l 320 680 l 330 665 l 334 656 l 348 640 q 307 625 333 631 l 256 609 l 248 604 l 270 532 l 274 526 l 290 473 l 295 464 l 302 438 l 307 430 l 325 380 l 333 359 l 338 349 l 360 290 q 367 272 363 283 l 373 260 q 393 217 383 234 l 397 203 q 409 174 404 191 l 414 165 q 425 136 421 149 l 414 125 q 402 113 410 121 l 397 110 l 321 37 q 296 14 312 27 l 290 12 l 279 40 q 272 54 275 45 l 269 59 l 265 72 q 252 103 258 83 q 245 115 247 111 q 230 154 241 132 l 224 173 l 219 184 l 204 224 l 199 235 l 193 256 l 187 269 l 177 301 l 172 313 l 127 453 q 119 484 123 466 l 103 537 l 104 543 l 98 559 q 56 548 81 558 l -21 524 l -31 557 l -37 583 q -37 591 -36 585 l -46 631 l -49 640 l 9 658 l 16 659 l 56 671 l 66 671 l 72 675 q 64 722 67 692 l 62 736 l 60 743 l 58 764 q 54 780 56 775 q 51 811 54 792 l 48 844 l 47 848 l 47 871 q 46 898 45 882 l 45 909 l 45 931 l 45 939 l 45 947 l 49 991 l 51 1006 l 54 1037 q 56 1045 56 1040 l 65 1081 l 67 1086 l 71 1099 l 72 1103 l 100 1161 q 116 1184 107 1169 l 125 1192 l 137 1206 l 146 1215 l 171 1232 z "},"g":{"ha":556,"x_min":-94,"x_max":727,"o":"m 174 832 l 254 832 l 290 822 q 311 814 301 816 q 465 456 508 690 q 539 199 570 351 q 726 -27 721 146 q 546 -252 727 -186 q 224 -99 317 -300 q 404 199 162 112 q 420 336 433 261 l 416 340 q 157 233 332 203 q -31 426 16 279 q 113 812 -94 675 l 149 826 l 174 832 m 235 659 q 197 669 219 667 q 116 498 110 625 q 233 365 136 329 q 265 625 335 471 q 235 659 255 642 m 582 -16 q 473 96 570 88 q 393 -79 361 48 q 526 -151 425 -189 q 582 -16 584 -101 z "},"h":{"ha":570,"x_min":20,"x_max":583,"o":"m 117 1033 q 150 1044 138 1038 l 176 1047 l 183 952 q 184 924 182 941 l 188 880 l 187 869 l 191 841 l 190 830 l 197 762 q 199 707 195 739 l 201 692 l 200 682 l 202 665 l 205 628 q 582 462 580 837 l 583 443 q 581 420 579 433 l 580 414 q 576 377 578 401 l 572 353 q 562 295 571 337 l 558 279 l 551 241 q 544 215 549 226 q 539 191 543 204 l 534 168 q 525 141 530 153 q 521 120 524 132 q 510 87 517 107 l 352 68 q 366 100 356 81 l 419 238 l 423 252 l 427 272 q 435 307 433 288 l 441 349 l 441 369 q 439 418 441 397 q 409 484 431 450 q 348 522 386 509 q 298 471 320 503 q 250 227 249 365 q 249 187 248 211 l 249 172 q 249 140 248 153 q 248 109 247 137 l 249 90 q 199 85 229 85 l 185 86 q 155 85 168 84 l 102 82 l 89 182 q 87 219 92 198 q 85 250 85 232 l 80 292 l 81 298 l 75 346 l 75 359 l 71 401 q 66 455 72 423 q 66 472 67 462 q 62 513 62 489 l 56 564 l 58 571 l 53 607 q 49 661 52 629 l 49 676 l 45 708 q 42 745 43 723 l 39 772 q 34 826 38 794 l 33 856 q 29 899 31 873 l 24 937 l 24 955 l 20 989 l 20 1006 l 37 1010 l 43 1013 q 75 1021 57 1015 l 86 1025 l 117 1033 l 117 1033 z "},"i":{"ha":341,"x_min":32,"x_max":293,"o":"m 68 874 q 113 1010 32 952 q 271 960 231 1056 q 176 831 293 863 q 68 874 113 825 m 84 777 q 145 758 110 774 l 172 751 q 204 739 191 746 l 277 718 l 278 664 l 277 654 l 280 623 l 277 614 q 279 569 282 595 l 283 494 l 281 487 l 283 452 l 282 447 l 285 416 l 283 402 l 286 372 l 285 355 l 288 281 l 287 271 l 290 202 l 288 191 l 293 111 l 288 106 q 236 111 265 104 q 167 121 196 119 l 151 124 l 140 125 l 84 777 z "},"j":{"ha":314,"x_min":-138,"x_max":278,"o":"m -9 909 q 50 1059 -31 1005 q 158 949 155 1065 q 56 831 161 833 q -9 909 7 853 m 168 755 l 172 755 q 193 709 184 737 q 200 687 195 699 l 204 671 q 212 649 206 661 l 229 593 l 229 587 l 233 579 q 238 553 235 564 l 250 497 l 252 488 q 255 473 254 477 q 258 465 256 469 l 264 421 l 269 408 l 271 381 l 274 361 q 278 317 274 343 l 278 172 l 276 157 l 274 138 q 50 -142 250 -74 l 1 -154 l -12 -156 l -54 -156 l -69 -124 l -71 -118 q -83 -92 -77 -108 l -96 -70 q -103 -54 -98 -64 l -113 -32 l -119 -20 l -130 0 l -136 14 l -138 24 q 136 208 140 -54 q 138 258 140 228 l 138 317 l 136 332 l 136 374 l 134 385 l 132 441 l 130 452 l 128 486 l 126 495 l 121 545 q 119 562 119 555 l 111 602 l 109 613 l 106 621 l 104 631 l 102 640 l 73 719 l 62 735 l 60 741 l 111 747 l 119 747 l 128 749 l 134 749 q 161 753 144 753 l 168 755 z "},"k":{"ha":686,"x_min":25,"x_max":724,"o":"m 25 1257 l 87 1257 q 105 1255 95 1255 q 127 1253 116 1255 l 148 1253 l 159 1251 l 188 1251 l 191 1250 l 254 1248 q 288 1246 269 1244 l 313 1244 l 314 1189 l 316 1183 l 318 1104 l 320 1097 l 320 1065 l 321 1053 l 321 1019 l 323 1006 l 326 930 q 328 923 328 928 l 337 675 l 339 667 l 340 592 l 342 577 l 345 501 l 347 496 l 347 460 l 350 445 l 424 524 l 429 532 l 450 552 l 458 562 q 471 575 460 566 q 478 582 475 577 q 486 592 482 587 l 507 613 q 530 637 515 624 q 562 671 547 659 q 575 686 569 681 q 597 711 587 696 l 607 719 l 611 664 l 613 659 l 613 640 l 614 633 l 618 566 q 621 541 621 556 l 622 524 l 562 475 l 554 469 q 541 458 551 467 q 533 452 539 456 l 465 395 l 471 361 q 494 340 482 354 l 498 339 l 516 320 l 522 316 l 537 301 l 545 296 l 578 263 l 588 256 l 647 201 l 652 197 l 696 155 l 700 154 l 711 142 l 720 135 q 724 123 724 129 l 703 109 l 694 101 l 690 99 l 671 83 l 664 78 l 631 56 q 621 46 630 52 l 613 40 l 605 35 l 594 27 l 581 16 l 575 14 l 562 35 l 552 48 l 549 52 l 528 83 l 520 93 l 515 101 l 494 133 q 473 163 480 148 l 465 172 l 429 225 l 422 235 l 376 303 l 371 309 l 356 307 q 356 263 354 290 l 356 243 q 357 208 359 229 l 359 197 l 359 157 l 361 148 l 361 114 l 363 111 l 363 73 l 366 61 l 366 27 l 367 23 l 367 -20 l 321 -67 l 313 -79 l 284 -109 q 277 -111 282 -111 l 275 -100 l 273 -83 q 269 -64 269 -71 l 267 -56 l 265 -47 l 259 -14 l 258 -3 q 254 10 256 6 l 254 18 q 248 50 250 31 l 246 59 q 241 90 242 73 q 238 105 239 99 q 235 118 237 111 l 231 133 q 229 152 229 144 q 226 166 227 154 q 220 193 225 178 q 218 212 218 205 q 214 225 216 214 l 214 233 l 210 246 l 208 263 q 201 296 206 277 l 191 349 l 189 361 l 182 403 q 178 422 180 412 l 176 433 l 174 441 l 171 462 l 169 477 q 167 484 167 479 l 159 522 l 157 532 l 155 545 l 153 556 l 150 570 l 148 581 l 148 588 l 146 596 l 138 637 l 136 649 l 135 659 l 133 667 l 125 705 q 121 726 123 719 l 118 749 l 116 760 l 114 772 l 106 806 l 104 819 l 102 832 l 100 836 q 95 864 100 849 l 93 876 l 87 905 l 82 936 l 76 966 l 74 981 l 66 1023 l 65 1036 q 61 1055 63 1046 q 47 1126 54 1082 q 44 1140 46 1128 l 44 1147 l 42 1157 q 40 1164 40 1159 l 29 1227 l 25 1240 l 25 1257 z "},"l":{"ha":298,"x_min":16,"x_max":277,"o":"m 16 1225 q 64 1231 35 1230 l 70 1232 l 89 1232 q 116 1236 101 1233 l 123 1236 l 156 1239 l 164 1238 q 189 1240 176 1241 l 231 1245 l 241 1245 l 253 1246 q 258 1196 257 1225 l 258 1174 l 258 1164 l 260 1112 l 260 1102 l 260 1093 l 260 1082 q 260 1051 259 1069 q 260 1024 259 1040 q 262 981 258 1006 q 262 962 262 971 q 261 930 263 948 q 262 909 263 921 q 262 878 264 896 l 264 833 l 264 821 l 263 800 q 264 770 266 786 q 266 751 264 758 q 264 744 264 749 q 265 735 264 739 q 265 727 266 732 q 266 714 264 722 q 267 663 264 694 l 267 655 l 267 646 l 267 620 l 268 612 l 269 564 q 270 521 268 538 l 270 511 q 269 479 271 498 l 270 464 l 270 456 q 271 431 269 439 l 271 384 l 272 372 l 273 334 l 272 328 l 273 300 q 274 286 273 291 q 273 275 274 281 q 274 261 273 269 l 274 252 l 275 212 l 275 201 l 274 179 l 274 168 l 275 162 l 276 76 l 277 60 l 250 54 q 216 54 235 56 l 178 51 l 172 50 l 163 93 l 161 114 l 155 156 l 154 163 l 154 172 l 151 188 l 148 209 q 145 240 145 222 q 142 267 141 251 q 136 314 138 286 l 133 328 l 130 352 l 119 436 q 117 453 117 448 l 113 476 l 113 481 q 110 509 111 493 l 109 514 q 104 552 105 529 q 98 590 101 567 l 99 596 q 93 634 96 611 l 93 644 l 90 661 q 83 707 87 682 l 81 724 q 75 773 77 752 l 73 785 l 73 790 l 71 806 l 71 811 q 64 853 68 827 l 62 868 l 58 899 l 57 914 l 52 945 q 48 975 52 958 l 49 979 l 45 1000 l 45 1006 l 41 1023 l 40 1040 l 39 1051 l 35 1070 q 32 1107 33 1091 l 30 1116 q 24 1164 29 1135 l 24 1171 q 17 1213 21 1192 l 16 1225 z "},"m":{"ha":630,"x_min":18,"x_max":659,"o":"m 504 867 l 507 867 l 659 227 l 474 190 l 448 416 l 372 159 l 196 349 l 161 163 l 18 163 l 101 770 l 311 406 l 501 863 l 504 867 z "},"n":{"ha":444,"x_min":18,"x_max":493,"o":"m 442 770 q 480 777 465 772 l 492 776 q 489 749 493 763 l 484 725 l 481 713 l 477 693 l 477 686 q 475 680 475 684 l 470 654 l 468 646 l 465 637 l 463 620 q 458 595 458 609 q 451 564 454 583 l 449 558 q 444 534 448 548 l 444 528 l 439 511 q 437 494 437 503 l 433 481 l 430 469 l 428 455 q 425 437 425 445 q 422 425 423 436 l 420 415 q 416 401 418 406 q 411 376 415 390 l 409 364 l 406 352 l 399 317 l 397 307 l 395 299 q 390 275 394 289 l 382 236 l 380 227 l 378 217 l 378 210 l 373 196 l 371 182 l 368 166 l 366 155 l 359 126 l 359 119 q 354 96 355 110 l 352 87 q 349 73 350 82 l 345 61 l 342 47 l 325 77 l 321 80 q 287 137 303 113 l 284 144 q 259 184 269 164 l 256 188 l 253 195 l 240 216 l 235 222 l 197 287 l 194 290 l 178 319 l 173 327 l 174 316 l 175 300 q 178 282 178 290 l 179 275 l 180 268 q 183 247 182 254 l 184 239 l 189 200 q 193 188 191 191 l 192 180 q 195 163 195 174 q 198 134 197 151 l 201 123 l 201 117 l 206 81 q 210 52 209 70 l 213 36 l 214 24 l 193 21 l 187 22 l 157 18 l 146 17 l 139 17 l 130 16 q 79 12 100 12 l 70 10 l 59 9 l 58 28 l 57 41 l 56 54 l 55 66 q 54 92 54 81 l 53 96 q 53 124 52 114 q 51 156 50 137 l 50 169 l 48 176 l 46 239 l 45 243 l 45 256 q 43 267 43 258 q 43 288 43 277 l 42 291 l 43 302 l 41 307 l 41 319 q 41 334 40 325 l 39 347 l 37 391 l 37 397 l 35 405 l 36 417 q 35 449 33 430 l 33 462 l 32 469 l 33 479 l 31 485 l 31 509 l 30 529 l 28 542 l 27 551 q 26 586 28 564 l 26 591 l 25 611 l 24 623 l 23 635 l 23 643 q 21 667 22 657 l 21 675 l 19 700 l 20 709 l 18 718 l 18 736 q 37 711 28 728 l 56 687 l 59 682 q 74 661 66 674 l 87 643 q 98 628 90 637 l 106 615 l 112 608 l 130 584 l 148 558 l 155 551 l 171 527 l 182 512 q 194 496 189 501 l 217 463 q 229 448 224 454 l 254 413 l 260 404 q 273 387 269 393 l 292 361 l 300 350 l 306 465 q 309 500 309 479 l 315 608 l 317 618 l 324 747 q 351 753 337 752 q 382 758 362 756 q 408 764 392 760 l 416 764 l 433 768 l 442 770 l 442 770 z "},"o":{"ha":537,"x_min":12,"x_max":543,"o":"m 203 756 l 267 756 l 279 755 l 321 741 l 334 734 l 352 726 q 534 376 526 604 q 464 159 543 262 q 243 104 378 66 q 28 383 73 186 l 21 474 q 89 691 12 587 l 115 716 q 135 730 123 723 l 138 733 l 161 745 l 203 756 m 294 524 q 256 534 277 532 q 217 515 237 529 q 195 372 174 453 q 294 236 208 287 q 345 242 318 230 q 383 380 397 296 q 294 524 370 464 z "},"p":{"ha":557,"x_min":24,"x_max":557,"o":"m 24 857 l 249 841 l 250 779 l 251 774 l 249 763 l 252 758 q 439 728 347 795 q 551 490 541 640 q 441 258 557 346 q 275 201 340 201 q 369 -210 239 218 l 134 -287 l 25 842 l 24 857 m 360 590 q 324 597 345 600 l 304 583 q 269 349 218 481 q 291 330 278 338 q 319 331 304 327 q 380 560 416 414 q 362 587 375 574 l 360 590 z "},"q":{"ha":588,"x_min":-5,"x_max":574,"o":"m 277 843 q 466 758 391 858 l 483 729 l 488 714 l 492 709 l 512 637 l 514 617 l 516 604 l 517 591 l 516 514 l 514 509 l 514 497 l 512 492 l 514 486 l 516 450 l 517 444 l 517 431 l 519 416 q 522 389 522 400 l 523 363 l 525 350 l 527 321 l 529 317 l 529 297 l 530 284 l 532 271 l 534 235 l 536 229 l 538 201 q 540 170 538 194 q 543 124 543 152 l 545 117 l 549 62 l 551 47 l 553 34 l 558 -36 q 560 -54 558 -43 l 562 -95 q 566 -132 566 -109 q 568 -144 568 -140 l 568 -155 l 569 -163 l 569 -176 l 571 -189 l 573 -223 l 574 -229 l 574 -260 l 538 -266 q 519 -268 529 -267 q 494 -273 509 -269 l 453 -279 l 446 -280 l 427 -282 q 420 -284 426 -284 l 408 -284 l 406 -267 l 406 -236 l 404 -229 l 402 -140 l 400 -132 l 400 -91 l 398 -80 l 396 1 q 395 16 395 7 l 395 45 l 393 58 l 393 91 l 391 104 l 391 139 q 389 157 389 146 l 387 231 q 165 166 294 135 q 18 385 36 223 q 159 783 -5 611 l 218 823 l 260 840 l 266 840 l 277 843 m 326 598 q 273 623 307 623 q 248 611 266 621 q 186 326 124 494 q 218 297 198 310 q 256 297 237 292 q 343 424 323 339 q 326 598 370 510 z "},"r":{"ha":409,"x_min":-18,"x_max":433,"o":"m 179 665 q 320 802 222 753 l 377 810 l 399 805 l 405 802 l 409 783 l 411 780 l 412 770 l 415 758 q 420 737 418 749 l 422 730 l 424 718 l 427 703 l 430 694 l 433 672 l 406 663 l 397 661 l 380 654 l 372 650 l 366 648 q 359 646 364 646 l 331 631 l 324 629 l 247 586 l 239 580 l 231 574 l 226 571 l 213 561 q 200 549 208 555 l 193 539 l 240 153 q 215 144 230 148 l 177 135 l 165 130 l 159 129 q 138 123 145 125 l 132 120 l 104 113 l 101 111 l 79 109 l 72 161 l 68 174 l 38 369 l 35 376 l 31 407 q 29 414 29 408 l 27 429 l 24 443 l 20 471 l 17 482 l 8 539 l 5 546 l -3 603 l -5 608 l -9 632 l -12 646 l -18 699 l -8 703 l 8 709 q 30 720 17 713 l 35 720 l 41 724 l 60 732 q 89 743 72 735 l 96 745 l 123 758 l 155 770 l 164 772 l 176 672 l 179 665 l 179 665 z "},"s":{"ha":602,"x_min":7,"x_max":604,"o":"m 140 646 q 475 692 288 724 q 604 618 546 674 l 587 599 q 578 589 584 593 l 574 583 q 566 576 570 581 q 558 570 562 575 l 519 536 q 504 524 511 532 l 492 513 q 485 507 490 511 l 443 518 l 434 519 l 419 522 q 401 525 412 522 l 397 525 l 348 526 l 329 522 l 326 522 l 316 519 l 295 511 q 279 500 288 507 l 274 498 q 309 463 286 477 q 325 455 317 460 l 331 452 l 338 448 q 348 444 343 446 l 361 437 l 385 429 l 392 426 l 425 414 l 428 412 l 435 410 q 450 403 444 406 l 473 391 q 496 378 483 387 l 531 353 l 537 347 l 543 343 l 548 338 l 562 321 l 565 317 l 570 311 l 574 303 l 581 290 q 587 273 584 283 l 589 268 l 591 256 l 592 239 l 593 235 l 591 212 q 590 205 590 207 l 588 199 l 588 195 l 585 186 q 575 170 580 180 l 573 168 q 566 155 571 161 l 565 151 l 557 142 q 545 127 551 137 q 141 62 372 1 q 115 68 130 64 l 75 81 q 54 90 66 83 l 39 94 l 31 98 l 19 102 q 11 105 18 103 l 7 108 l 14 119 l 14 121 l 24 138 q 34 156 29 149 q 42 171 37 163 l 49 191 q 55 200 54 197 q 65 218 60 207 l 69 226 l 71 232 l 77 243 q 85 260 81 250 l 87 264 q 402 235 233 146 l 410 242 q 360 273 393 262 q 340 279 351 274 q 127 363 225 291 l 85 407 l 70 432 l 68 433 l 63 443 q 56 458 60 448 l 54 464 l 52 467 l 50 473 l 48 477 l 98 615 l 140 646 l 140 646 z "},"t":{"ha":486,"x_min":-60,"x_max":468,"o":"m 260 1102 q 269 1098 266 1101 l 271 1077 l 271 1066 l 273 1061 l 275 1031 q 277 1013 275 1024 q 278 1001 278 1004 l 279 982 l 281 975 l 283 940 l 284 935 l 287 906 q 290 880 286 894 q 292 857 291 869 l 291 852 q 294 823 293 840 l 296 808 l 296 795 q 298 778 297 783 q 299 766 300 772 l 302 746 l 355 769 l 366 774 l 372 775 l 386 783 l 395 785 q 402 788 397 787 l 431 801 q 454 810 440 806 l 460 811 l 460 791 l 460 779 l 461 767 l 462 755 l 463 744 l 465 726 q 465 714 464 718 l 465 707 l 467 669 q 467 646 468 660 l 466 637 l 453 632 l 449 629 l 418 614 l 414 610 l 406 606 l 391 599 l 378 591 q 363 584 369 587 l 334 569 q 309 555 323 565 l 312 517 l 313 505 q 315 492 314 496 l 315 485 q 316 478 316 484 l 319 439 l 320 431 q 323 390 323 408 l 331 316 l 332 304 q 335 288 334 293 q 336 271 335 283 l 337 260 l 340 221 l 341 209 l 342 199 l 343 193 l 345 176 q 346 163 346 167 q 347 156 345 159 l 350 128 l 351 117 l 351 107 l 352 98 l 353 87 l 355 66 l 358 43 q 358 28 359 33 l 273 4 l 265 1 l 256 0 l 231 -8 l 208 -12 q 205 15 210 1 q 205 33 205 26 l 203 45 l 202 56 l 203 62 l 201 71 l 201 78 l 200 92 l 197 131 l 195 141 l 195 150 q 191 191 191 173 l 191 201 l 186 237 l 185 245 q 182 282 186 268 l 181 293 l 180 317 l 179 330 l 175 365 l 174 374 q 171 418 171 400 q 168 449 168 430 q 166 464 168 458 q 165 479 165 470 q 164 496 163 490 l 161 509 l 161 519 q 158 532 161 525 l 77 507 l 72 505 l 43 496 q 26 491 36 492 l 13 487 l -12 479 q -41 469 -24 476 q -60 464 -50 468 l -45 635 l -24 642 q -9 648 -19 644 l 54 669 q 60 672 55 670 q 73 675 66 674 l 134 698 l 128 765 l 127 772 l 126 781 l 120 836 l 119 844 l 118 853 l 117 878 l 116 888 q 113 926 113 911 l 111 943 l 110 955 q 103 1022 105 980 q 100 1046 101 1032 l 125 1057 q 144 1062 133 1057 l 233 1093 l 244 1097 l 260 1102 z "},"u":{"ha":566,"x_min":21,"x_max":526,"o":"m 358 779 q 356 789 356 780 l 520 789 q 522 762 522 772 l 524 751 l 524 737 l 526 733 l 526 563 l 524 556 l 520 505 l 515 471 l 515 467 l 512 448 l 510 437 l 508 427 q 501 399 503 411 l 490 367 l 490 362 q 479 337 485 346 l 464 300 q 446 273 455 283 l 418 237 l 416 234 q 322 182 380 200 l 307 175 q 280 165 296 169 l 260 159 l 201 159 q 168 169 188 161 q 85 257 115 201 l 69 294 l 66 304 l 64 311 l 54 340 l 48 362 l 48 367 l 42 383 l 41 391 l 41 396 l 37 411 q 36 421 37 418 q 34 442 34 430 q 31 468 31 452 l 28 479 l 26 485 l 26 501 q 24 522 24 509 q 23 548 21 532 l 21 551 l 21 668 l 50 675 q 60 678 57 678 l 73 682 l 85 686 q 104 692 94 686 l 182 712 l 189 715 l 221 724 q 218 692 223 710 l 216 686 l 211 647 l 209 633 l 207 619 l 205 603 l 203 597 l 201 568 q 201 556 201 563 q 199 543 201 547 l 199 507 l 197 504 q 199 467 195 489 l 199 440 l 201 427 l 201 421 q 207 395 201 411 l 214 371 l 229 347 q 252 332 237 338 q 287 332 267 327 l 307 346 q 336 397 326 366 l 338 401 q 342 414 338 406 l 345 429 l 347 437 l 351 448 q 356 481 353 467 l 356 488 l 358 491 q 360 522 360 509 l 361 541 q 363 566 361 551 l 361 725 q 360 745 360 733 l 358 779 l 358 779 z "},"v":{"ha":498,"x_min":-12,"x_max":532,"o":"m 514 856 l 532 856 q 522 818 531 841 q 517 800 519 811 l 511 783 q 503 757 507 768 l 501 750 l 496 733 l 494 727 l 471 650 l 469 648 q 456 606 466 633 l 454 600 l 412 458 l 410 452 l 400 424 l 398 417 l 382 364 q 370 328 378 349 l 355 280 q 349 258 353 270 l 324 176 q 317 157 322 168 l 317 153 l 300 103 q 281 141 289 118 l 274 153 l 271 163 l 266 172 l 262 178 l 259 187 q 251 204 254 194 l 221 269 q 215 281 220 273 l 205 305 l 201 310 l 198 318 l 190 338 q 180 359 185 347 l 170 378 l 165 391 q 161 397 163 393 l 152 417 l 149 427 l 138 446 l 137 452 l 111 509 q 100 530 106 517 l 99 535 q 87 559 92 545 l 82 570 q 76 583 79 574 l 62 612 q 56 626 59 618 l 47 644 q 38 665 43 652 l 36 671 q 28 687 31 677 l 23 697 l 5 739 q -2 750 3 740 l -12 780 q 18 781 6 781 l 21 783 l 33 783 l 38 785 l 51 785 q 71 786 59 786 l 74 788 l 106 789 l 111 791 l 119 791 l 127 793 l 160 795 l 172 796 q 180 766 176 785 l 185 755 l 186 748 l 189 740 q 197 710 193 728 l 198 705 q 205 682 201 697 l 208 674 l 210 667 l 215 649 q 224 612 220 635 q 228 601 228 604 l 243 555 l 243 550 l 261 492 l 262 482 l 264 475 l 286 406 q 289 435 289 417 l 291 441 l 291 450 q 294 477 294 462 q 296 490 296 482 q 299 524 299 510 l 300 535 l 302 553 q 306 583 306 565 l 307 594 l 309 606 l 311 618 l 312 639 l 314 649 l 319 694 q 321 712 321 702 l 322 717 q 326 750 322 730 l 326 760 l 327 773 q 330 796 329 786 q 332 813 332 804 l 334 827 q 363 833 345 831 l 375 834 l 389 836 l 400 838 l 407 840 l 443 844 q 465 848 451 848 l 514 856 z "},"w":{"ha":707,"x_min":-47,"x_max":746,"o":"m 334 706 q 343 725 337 712 l 348 725 l 387 662 q 397 645 390 654 l 422 605 l 425 599 l 452 555 l 456 549 l 482 507 q 493 491 486 499 q 504 473 496 483 l 523 443 q 528 481 523 456 l 547 611 l 570 766 l 570 778 l 618 789 l 629 789 l 666 796 l 675 797 l 697 802 q 704 802 699 800 l 745 810 q 731 730 746 782 q 712 668 715 677 q 699 614 704 639 l 686 566 l 677 530 q 570 110 668 488 q 360 441 568 109 l 230 110 l 214 142 q 208 151 210 148 q 190 186 198 171 l 184 193 q 172 220 180 205 q 165 232 167 227 q 154 253 160 239 l 148 262 l 144 270 l 136 285 l 126 305 q 111 334 119 317 l 66 416 q 57 435 61 424 l 49 447 q 45 458 45 454 q 36 473 40 463 l -12 561 l -16 570 l -24 586 l -28 593 l -30 596 l -45 624 l -47 633 l -29 636 l -17 637 l -5 638 q 6 639 -3 637 l 12 638 l 30 641 l 39 641 l 54 643 q 80 646 71 644 l 92 647 l 104 648 l 115 649 q 122 649 117 648 q 133 650 127 650 q 144 650 138 650 l 152 631 l 155 627 q 165 604 157 616 l 169 594 q 174 582 173 587 l 184 562 q 188 550 187 554 q 191 543 189 546 l 205 512 l 209 504 l 213 494 q 226 469 216 481 q 232 486 227 477 l 245 516 l 254 533 l 257 539 l 266 560 l 269 568 q 281 593 276 578 l 286 602 l 293 616 l 297 627 q 302 634 300 629 q 305 644 304 640 q 310 652 306 648 l 326 688 q 334 706 331 695 z "},"x":{"ha":507,"x_min":-41,"x_max":543,"o":"m 121 756 l 127 753 q 134 741 129 748 q 144 719 136 732 l 147 712 l 152 703 l 180 648 l 182 644 q 197 614 190 633 l 202 606 l 214 581 q 219 572 219 574 l 222 568 l 228 555 l 231 551 l 257 498 q 260 493 258 496 q 264 485 262 489 l 274 465 l 277 463 l 289 481 l 292 484 l 302 499 l 307 506 l 311 509 l 313 514 l 318 519 l 359 576 q 373 595 363 584 l 379 604 l 382 606 q 397 627 387 616 l 429 671 l 431 675 l 448 696 l 449 701 l 477 737 l 481 740 q 488 719 483 730 l 492 704 l 496 687 l 498 682 l 504 661 q 512 638 507 655 q 518 616 516 626 l 521 608 l 522 601 l 530 580 l 532 570 l 538 555 l 543 536 l 543 527 q 524 509 533 520 l 486 471 l 477 463 l 472 457 l 455 441 l 454 438 l 446 432 l 443 428 l 427 412 l 425 410 l 396 382 l 390 375 l 382 367 q 367 351 376 361 l 359 345 l 357 342 l 344 329 l 363 290 l 368 282 l 390 239 l 393 235 l 402 216 l 410 200 l 414 193 l 441 138 q 448 127 443 134 l 452 118 l 457 111 l 461 101 q 439 79 454 90 q 410 55 429 73 q 399 47 408 52 l 394 47 l 370 76 q 355 93 362 83 l 350 98 q 345 104 347 100 l 341 108 l 335 116 l 329 122 q 317 136 324 129 l 312 142 l 307 147 q 300 155 302 153 q 286 171 295 162 l 280 178 l 243 220 l 239 224 l 211 196 q 195 179 205 189 l 185 170 q 172 157 180 165 l 168 153 l 152 137 l 150 134 l 142 127 q 134 117 136 121 l 74 59 l 73 56 l 68 52 l 63 54 l 33 96 l 30 98 l 26 104 l 22 109 l 24 117 l 51 154 l 58 165 l 62 168 l 81 196 l 86 201 l 106 229 q 118 247 112 236 l 134 267 l 135 269 l 165 310 l 134 346 l 130 349 l 124 356 q 112 371 118 361 l 107 375 l 95 389 l 91 395 l 79 408 l 69 420 q 54 437 62 427 q 40 453 46 444 l 37 456 l 16 481 l 12 486 l 8 489 l 2 496 l -3 502 l -13 513 l -19 520 l -25 527 l -27 530 l -37 542 l -41 544 l -41 551 l -19 578 l -16 581 q 1 604 -13 587 l 3 606 l 22 630 q 36 648 26 638 l 42 655 l 46 662 l 91 718 l 98 727 l 103 732 l 121 756 z "},"y":{"ha":335,"x_min":-47,"x_max":443,"o":"m 437 843 l 443 843 q 434 808 441 829 l 418 758 l 415 751 l 414 745 l 372 610 l 370 608 l 350 543 l 349 539 l 338 504 l 334 498 l 334 493 l 319 445 q 311 420 315 434 l 297 376 l 294 370 l 293 363 l 291 357 l 273 300 l 271 294 l 239 191 q 231 165 234 180 l 206 88 q 195 53 198 66 l 152 -82 q 145 -99 150 -90 l 144 -106 l 142 -113 q 134 -138 138 -124 l 122 -175 q 116 -193 121 -183 l 115 -201 l 111 -208 l 106 -222 l 105 -228 l 102 -239 l 100 -245 l 98 -254 q 62 -231 79 -248 l 47 -222 l 45 -218 l 35 -212 l 33 -210 l 6 -191 q -3 -183 0 -186 l -19 -172 q -36 -160 -25 -166 l -39 -157 q -28 -123 -36 -142 l -19 -92 l -14 -71 q -7 -47 -9 -60 l -3 -37 l -2 -31 l 29 70 q 37 94 31 81 l 37 99 l 54 153 l 56 159 q 62 181 60 172 q 68 198 63 189 l 69 205 l 71 212 q 73 218 73 214 l 87 260 l 87 265 q 96 296 93 277 l 99 304 l 100 310 l 105 322 l 73 378 q 63 395 68 385 l 58 401 l 51 417 q 40 435 45 423 l 33 448 q 23 465 28 454 l 15 479 l 11 487 l -20 541 l -24 544 l -26 552 l -42 576 q -47 592 -47 586 l -5 617 q 11 626 1 621 l 113 688 l 117 690 l 128 657 l 138 631 l 142 617 l 170 534 l 172 527 l 184 491 l 189 482 q 193 500 189 491 l 193 505 l 199 524 q 206 545 201 533 l 224 615 l 226 618 l 243 680 l 245 690 l 260 741 l 260 745 q 262 751 262 747 q 267 767 264 758 q 268 773 268 769 l 353 809 l 367 814 l 378 819 l 395 826 q 410 832 406 829 l 427 838 l 437 843 z "},"z":{"ha":407,"x_min":4,"x_max":461,"o":"m 446 747 l 461 747 q 439 709 455 731 l 410 663 q 408 659 409 662 l 394 638 l 389 631 l 385 623 l 380 616 l 368 595 l 363 588 l 336 546 l 327 532 l 311 507 q 304 497 309 503 l 303 493 l 296 483 q 286 467 293 475 l 263 432 q 257 422 262 428 l 251 413 q 245 403 250 409 l 243 399 l 238 391 q 232 382 236 389 l 231 378 l 197 328 q 192 318 195 321 q 187 310 189 315 l 151 255 l 147 248 q 180 267 162 253 l 182 268 l 192 273 l 199 277 l 205 281 l 226 294 q 243 305 233 298 l 267 319 l 275 324 q 284 329 281 326 q 292 334 287 332 l 343 366 l 347 368 l 380 388 l 389 394 q 395 375 394 387 q 400 353 399 367 l 401 349 q 404 332 401 342 l 404 328 l 408 315 q 410 302 408 309 l 415 274 l 416 267 l 418 260 l 419 254 l 421 240 l 373 228 l 368 227 q 343 220 357 222 l 327 215 l 321 214 l 297 208 l 292 205 l 284 204 l 278 203 l 264 199 q 258 197 263 197 l 224 188 l 210 184 q 192 179 202 182 l 177 175 l 170 174 l 38 139 q 26 138 34 138 l 29 149 q 38 174 35 159 l 43 185 l 47 196 l 49 203 l 59 230 q 65 246 60 237 l 66 253 l 79 284 l 80 289 q 87 311 85 298 l 92 320 l 92 324 l 105 359 l 106 364 l 111 375 l 113 380 l 142 465 l 144 468 q 149 483 147 474 l 155 497 q 121 492 141 497 l 111 490 q 101 488 104 489 l 77 484 l 66 481 q 34 475 47 479 q 18 473 26 475 l 9 472 l 7 534 q 5 549 5 541 l 5 588 l 4 591 l 4 684 l 37 690 l 47 691 q 60 693 55 692 q 71 694 65 693 l 83 696 q 97 698 94 697 q 104 700 101 699 l 129 702 l 140 705 l 147 705 l 155 706 l 172 709 l 181 709 l 192 711 l 202 712 l 235 717 l 245 718 q 258 720 253 720 q 269 722 263 721 l 281 724 q 295 725 292 725 q 312 728 299 726 l 342 732 l 347 732 l 379 737 l 389 739 q 401 741 397 740 l 431 745 l 436 745 l 446 747 z "},"{":{"ha":285,"x_min":0,"x_max":0,"o":""},"|":{"ha":136,"x_min":0,"x_max":0,"o":""},"}":{"ha":244,"x_min":0,"x_max":0,"o":""},"~":{"ha":431,"x_min":0,"x_max":0,"o":""},"":{"ha":413,"x_min":0,"x_max":0,"o":""},"":{"ha":413,"x_min":0,"x_max":0,"o":""},"":{"ha":494,"x_min":0,"x_max":0,"o":""},"":{"ha":439,"x_min":0,"x_max":0,"o":""},"":{"ha":415,"x_min":0,"x_max":0,"o":""},"":{"ha":472,"x_min":0,"x_max":0,"o":""},"":{"ha":448,"x_min":0,"x_max":0,"o":""},"":{"ha":250,"x_min":0,"x_max":0,"o":""},"":{"ha":250,"x_min":0,"x_max":0,"o":""},"":{"ha":250,"x_min":0,"x_max":0,"o":""},"":{"ha":250,"x_min":0,"x_max":0,"o":""},"":{"ha":250,"x_min":0,"x_max":0,"o":""},"":{"ha":250,"x_min":0,"x_max":0,"o":""},"":{"ha":346,"x_min":0,"x_max":0,"o":""},"":{"ha":330,"x_min":0,"x_max":0,"o":""},"":{"ha":330,"x_min":0,"x_max":0,"o":""},"":{"ha":330,"x_min":0,"x_max":0,"o":""},"":{"ha":330,"x_min":0,"x_max":0,"o":""},"":{"ha":159,"x_min":0,"x_max":0,"o":""},"":{"ha":159,"x_min":0,"x_max":0,"o":""},"":{"ha":159,"x_min":0,"x_max":0,"o":""},"":{"ha":159,"x_min":0,"x_max":0,"o":""},"":{"ha":260,"x_min":0,"x_max":0,"o":""},"":{"ha":248,"x_min":0,"x_max":0,"o":""},"":{"ha":248,"x_min":0,"x_max":0,"o":""},"":{"ha":248,"x_min":0,"x_max":0,"o":""},"":{"ha":248,"x_min":0,"x_max":0,"o":""},"":{"ha":248,"x_min":0,"x_max":0,"o":""},"":{"ha":232,"x_min":0,"x_max":0,"o":""},"":{"ha":232,"x_min":0,"x_max":0,"o":""},"":{"ha":232,"x_min":0,"x_max":0,"o":""},"":{"ha":232,"x_min":0,"x_max":0,"o":""},"":{"ha":306,"x_min":0,"x_max":0,"o":""},"":{"ha":193,"x_min":0,"x_max":0,"o":""},"":{"ha":431,"x_min":0,"x_max":0,"o":""},"":{"ha":431,"x_min":0,"x_max":0,"o":""},"":{"ha":285,"x_min":0,"x_max":0,"o":""},"":{"ha":262,"x_min":0,"x_max":0,"o":""},"":{"ha":305,"x_min":0,"x_max":0,"o":""},"":{"ha":338,"x_min":0,"x_max":0,"o":""},"":{"ha":507,"x_min":0,"x_max":0,"o":""},"":{"ha":484,"x_min":0,"x_max":0,"o":""},"":{"ha":462,"x_min":0,"x_max":0,"o":""},"":{"ha":313,"x_min":0,"x_max":0,"o":""},"":{"ha":252,"x_min":0,"x_max":0,"o":""},"":{"ha":555,"x_min":0,"x_max":0,"o":""},"":{"ha":472,"x_min":0,"x_max":0,"o":""},"":{"ha":431,"x_min":0,"x_max":0,"o":""},"":{"ha":431,"x_min":0,"x_max":0,"o":""},"":{"ha":285,"x_min":0,"x_max":0,"o":""},"":{"ha":273,"x_min":0,"x_max":0,"o":""},"":{"ha":273,"x_min":0,"x_max":0,"o":""},"":{"ha":507,"x_min":0,"x_max":0,"o":""},"":{"ha":248,"x_min":0,"x_max":0,"o":""},"":{"ha":385,"x_min":0,"x_max":0,"o":""},"":{"ha":210,"x_min":0,"x_max":0,"o":""},"":{"ha":946,"x_min":0,"x_max":0,"o":""},"":{"ha":391,"x_min":0,"x_max":0,"o":""},"":{"ha":366,"x_min":0,"x_max":0,"o":""},"":{"ha":366,"x_min":0,"x_max":0,"o":""},"":{"ha":537,"x_min":0,"x_max":0,"o":""},"":{"ha":338,"x_min":0,"x_max":0,"o":""},"":{"ha":413,"x_min":0,"x_max":0,"o":""},"":{"ha":413,"x_min":0,"x_max":0,"o":""},"":{"ha":472,"x_min":0,"x_max":0,"o":""},"":{"ha":647,"x_min":0,"x_max":0,"o":""},"":{"ha":513,"x_min":0,"x_max":0,"o":""},"":{"ha":464,"x_min":0,"x_max":0,"o":""},"":{"ha":606,"x_min":0,"x_max":0,"o":""},"":{"ha":232,"x_min":0,"x_max":0,"o":""},"":{"ha":203,"x_min":0,"x_max":0,"o":""},"":{"ha":161,"x_min":0,"x_max":0,"o":""},"":{"ha":163,"x_min":0,"x_max":0,"o":""},"":{"ha":431,"x_min":0,"x_max":0,"o":""},"":{"ha":267,"x_min":0,"x_max":0,"o":""},"":{"ha":357,"x_min":0,"x_max":0,"o":""},"":{"ha":285,"x_min":0,"x_max":0,"o":""},"":{"ha":218,"x_min":0,"x_max":0,"o":""},"":{"ha":218,"x_min":0,"x_max":0,"o":""},"":{"ha":228,"x_min":0,"x_max":0,"o":""},"":{"ha":140,"x_min":0,"x_max":0,"o":""},"":{"ha":159,"x_min":0,"x_max":0,"o":""},"":{"ha":273,"x_min":0,"x_max":0,"o":""},"":{"ha":494,"x_min":0,"x_max":0,"o":""},"":{"ha":413,"x_min":0,"x_max":0,"o":""},"":{"ha":439,"x_min":0,"x_max":0,"o":""},"":{"ha":413,"x_min":0,"x_max":0,"o":""},"":{"ha":439,"x_min":0,"x_max":0,"o":""},"":{"ha":439,"x_min":0,"x_max":0,"o":""},"":{"ha":159,"x_min":0,"x_max":0,"o":""},"":{"ha":159,"x_min":0,"x_max":0,"o":""},"":{"ha":159,"x_min":0,"x_max":0,"o":""},"":{"ha":159,"x_min":0,"x_max":0,"o":""},"":{"ha":472,"x_min":0,"x_max":0,"o":""},"":{"ha":472,"x_min":0,"x_max":0,"o":""},"":{"ha":472,"x_min":0,"x_max":0,"o":""},"":{"ha":448,"x_min":0,"x_max":0,"o":""},"":{"ha":448,"x_min":0,"x_max":0,"o":""},"":{"ha":448,"x_min":0,"x_max":0,"o":""},"":{"ha":244,"x_min":0,"x_max":0,"o":""},"":{"ha":328,"x_min":0,"x_max":0,"o":""},"":{"ha":244,"x_min":0,"x_max":0,"o":""},"":{"ha":218,"x_min":0,"x_max":0,"o":""},"":{"ha":421,"x_min":0,"x_max":0,"o":""},"":{"ha":232,"x_min":0,"x_max":0,"o":""},"":{"ha":136,"x_min":0,"x_max":0,"o":""},"":{"ha":450,"x_min":0,"x_max":0,"o":""},"":{"ha":328,"x_min":0,"x_max":0,"o":""},"":{"ha":357,"x_min":0,"x_max":0,"o":""},"":{"ha":267,"x_min":0,"x_max":0,"o":""},"":{"ha":391,"x_min":0,"x_max":0,"o":""},"":{"ha":236,"x_min":0,"x_max":0,"o":""},"":{"ha":431,"x_min":0,"x_max":0,"o":""},"":{"ha":431,"x_min":0,"x_max":0,"o":""},"":{"ha":203,"x_min":0,"x_max":0,"o":""},"":{"ha":203,"x_min":0,"x_max":0,"o":""},"":{"ha":203,"x_min":0,"x_max":0,"o":""},"":{"ha":533,"x_min":0,"x_max":0,"o":""},"":{"ha":533,"x_min":0,"x_max":0,"o":""},"":{"ha":533,"x_min":0,"x_max":0,"o":""},"":{"ha":387,"x_min":0,"x_max":0,"o":""},"":{"ha":144,"x_min":0,"x_max":0,"o":""},"":{"ha":468,"x_min":0,"x_max":0,"o":""},"":{"ha":313,"x_min":0,"x_max":0,"o":""},"":{"ha":431,"x_min":0,"x_max":0,"o":""},"":{"ha":454,"x_min":0,"x_max":0,"o":""},"":{"ha":232,"x_min":0,"x_max":0,"o":""},"":{"ha":232,"x_min":0,"x_max":0,"o":""},"":{"ha":328,"x_min":0,"x_max":0,"o":""},"":{"ha":948,"x_min":0,"x_max":0,"o":""},"":{"ha":541,"x_min":0,"x_max":0,"o":""},"":{"ha":541,"x_min":0,"x_max":0,"o":""},"":{"ha":948,"x_min":0,"x_max":0,"o":""},"":{"ha":979,"x_min":0,"x_max":0,"o":""},"":{"ha":555,"x_min":0,"x_max":0,"o":""},"":{"ha":431,"x_min":0,"x_max":0,"o":""},"":{"ha":248,"x_min":0,"x_max":0,"o":""},"":{"ha":165,"x_min":0,"x_max":0,"o":""},"":{"ha":159,"x_min":0,"x_max":0,"o":""},"":{"ha":356,"x_min":0,"x_max":0,"o":""},"":{"ha":326,"x_min":0,"x_max":0,"o":""},"":{"ha":159,"x_min":0,"x_max":0,"o":""},"":{"ha":244,"x_min":0,"x_max":0,"o":""},"":{"ha":124,"x_min":0,"x_max":0,"o":""},"":{"ha":244,"x_min":0,"x_max":0,"o":""},"":{"ha":317,"x_min":0,"x_max":0,"o":""},"":{"ha":183,"x_min":0,"x_max":0,"o":""},"":{"ha":244,"x_min":0,"x_max":0,"o":""}}}
